<svg width="96" height="96" viewBox="0 0 96 96" fill="none" xmlns="http://www.w3.org/2000/svg">
<rect width="96" height="96" rx="48" fill="#F0F9F8"/>
<path d="M42.8805 73.9995C42.7886 73.7262 42.6159 73.4507 42.6159 73.1753C42.5984 69.4255 42.6093 65.678 42.5918 61.9282C42.5918 61.6309 42.4891 61.2942 42.3295 61.0427C41.4615 59.6762 40.5519 58.3337 39.673 56.9716C39.5418 56.7682 39.4171 56.5124 39.4171 56.2807C39.404 53.3596 39.3756 50.4363 39.4324 47.5174C39.4696 45.5584 40.7049 44.0366 42.5765 43.4288C44.118 42.9281 44.0917 42.9478 45.045 44.2487C45.7534 45.2129 46.5296 46.1291 47.308 47.0386C47.7977 47.6115 48.1082 47.6158 48.5892 47.0342C49.4704 45.9694 50.3318 44.885 51.1517 43.7721C51.7508 42.9587 51.7093 42.95 52.6997 43.2342C53.6858 43.5184 54.6129 43.8923 55.3235 44.6751C56.1193 45.554 56.4954 46.5882 56.4954 47.7689C56.4954 50.5719 56.5019 53.3749 56.4845 56.1779C56.4845 56.4447 56.3708 56.742 56.2243 56.9694C55.3497 58.3337 54.4401 59.674 53.5699 61.0405C53.4103 61.292 53.3076 61.6287 53.3076 61.9261C53.2901 65.6758 53.301 69.4233 53.2835 73.1731C53.2835 73.4486 53.1108 73.7219 53.019 73.9952H42.8826L42.8805 73.9995Z" fill="url(#paint0_linear_9712_9154)"/>
<path d="M42.9417 35.9468C43.0029 33.1307 45.3074 30.9508 48.1519 31.0164C50.7932 31.0776 53.0168 33.4302 52.9577 36.0977C52.8965 38.8613 50.5789 41.1024 47.848 41.0412C45.1303 40.98 42.8826 38.6471 42.9417 35.9468Z" fill="url(#paint1_linear_9712_9154)"/>
<path d="M46.5056 24.597C46.5056 24.1925 46.4728 23.7859 46.5121 23.3879C46.5886 22.6402 47.2162 22.1023 47.953 22.1045C48.692 22.1067 49.337 22.6467 49.3807 23.3989C49.4288 24.2363 49.4288 25.0824 49.3764 25.9198C49.3304 26.6457 48.692 27.1639 47.9683 27.1727C47.2205 27.1814 46.5908 26.6567 46.5143 25.9089C46.4706 25.476 46.5056 25.0343 46.5056 24.597Z" fill="url(#paint2_linear_9712_9154)"/>
<path d="M36.1659 37.8906C35.8117 37.8906 35.4575 37.9081 35.1055 37.8862C34.2265 37.8315 33.6384 37.2215 33.6493 36.395C33.6581 35.5729 34.2725 34.976 35.1514 34.9586C35.8423 34.9454 36.5332 34.9432 37.222 34.9586C38.0659 34.9782 38.6825 35.5686 38.7153 36.3622C38.7481 37.1406 38.1578 37.8009 37.3269 37.8753C36.9421 37.9102 36.5529 37.8818 36.1659 37.8818C36.1659 37.884 36.1659 37.8862 36.1659 37.8884V37.8906Z" fill="url(#paint3_linear_9712_9154)"/>
<path d="M59.7204 34.9629C60.1074 34.9629 60.4966 34.9454 60.8814 34.9673C61.616 35.0067 62.1911 35.5686 62.2457 36.2748C62.3048 37.04 61.8565 37.7484 61.1088 37.8206C60.1926 37.9059 59.259 37.9037 58.3429 37.8206C57.6236 37.7572 57.1404 37.0357 57.1863 36.3316C57.2344 35.5948 57.8116 35.0088 58.5572 34.9673C58.9442 34.9454 59.3312 34.9629 59.7182 34.9629H59.7204Z" fill="url(#paint4_linear_9712_9154)"/>
<path d="M36.7147 26.9999C36.7912 26.3746 37.0558 25.922 37.5849 25.664C38.1293 25.3973 38.6912 25.4235 39.1482 25.8346C39.7495 26.3768 40.3267 26.9496 40.8689 27.5509C41.3871 28.1259 41.3215 28.9852 40.7793 29.5231C40.2633 30.0347 39.4018 30.109 38.8443 29.6105C38.2277 29.0617 37.6483 28.467 37.0973 27.8505C36.9006 27.6296 36.8371 27.2864 36.7147 26.9977V26.9999Z" fill="url(#paint5_linear_9712_9154)"/>
<path d="M59.1344 27.1617C59.0338 27.3476 58.9005 27.7368 58.6534 28.0276C58.2161 28.5414 57.7198 29.0027 57.23 29.4684C56.5828 30.085 55.6711 30.0915 55.0983 29.5012C54.5123 28.8978 54.5385 28.0319 55.177 27.3738C55.6711 26.8644 56.1674 26.3571 56.6878 25.8761C57.1404 25.4585 57.6848 25.3907 58.2445 25.6312C58.8108 25.8739 59.0863 26.3331 59.1322 27.1595L59.1344 27.1617Z" fill="url(#paint6_linear_9712_9154)"/>
<defs>
<linearGradient id="paint0_linear_9712_9154" x1="33.6492" y1="44.279" x2="62.2614" y2="44.1116" gradientUnits="userSpaceOnUse">
<stop stop-color="#268B63"/>
<stop offset="0.955" stop-color="#62BF99"/>
</linearGradient>
<linearGradient id="paint1_linear_9712_9154" x1="33.6492" y1="44.279" x2="62.2614" y2="44.1116" gradientUnits="userSpaceOnUse">
<stop stop-color="#268B63"/>
<stop offset="0.955" stop-color="#62BF99"/>
</linearGradient>
<linearGradient id="paint2_linear_9712_9154" x1="33.6492" y1="44.279" x2="62.2614" y2="44.1116" gradientUnits="userSpaceOnUse">
<stop stop-color="#268B63"/>
<stop offset="0.955" stop-color="#62BF99"/>
</linearGradient>
<linearGradient id="paint3_linear_9712_9154" x1="33.6492" y1="44.279" x2="62.2614" y2="44.1116" gradientUnits="userSpaceOnUse">
<stop stop-color="#268B63"/>
<stop offset="0.955" stop-color="#62BF99"/>
</linearGradient>
<linearGradient id="paint4_linear_9712_9154" x1="33.6492" y1="44.279" x2="62.2614" y2="44.1116" gradientUnits="userSpaceOnUse">
<stop stop-color="#268B63"/>
<stop offset="0.955" stop-color="#62BF99"/>
</linearGradient>
<linearGradient id="paint5_linear_9712_9154" x1="33.6492" y1="44.279" x2="62.2614" y2="44.1116" gradientUnits="userSpaceOnUse">
<stop stop-color="#268B63"/>
<stop offset="0.955" stop-color="#62BF99"/>
</linearGradient>
<linearGradient id="paint6_linear_9712_9154" x1="33.6492" y1="44.279" x2="62.2614" y2="44.1116" gradientUnits="userSpaceOnUse">
<stop stop-color="#268B63"/>
<stop offset="0.955" stop-color="#62BF99"/>
</linearGradient>
</defs>
</svg>
