<svg width="96" height="96" viewBox="0 0 96 96" fill="none" xmlns="http://www.w3.org/2000/svg">
<rect width="96" height="96" rx="48" fill="#F0F9F8"/>
<path d="M69.0356 70.959C69.6531 70.959 70.2083 70.9576 70.7622 70.959C71.4433 70.9617 71.8306 71.2501 71.8374 71.7593C71.8442 72.2712 71.4528 72.5799 70.7825 72.5799C68.5021 72.5813 66.2217 72.5799 63.9412 72.5799C51.0875 72.5799 38.2337 72.5799 25.3786 72.5799C25.2094 72.5799 25.0401 72.5881 24.8722 72.5759C24.3982 72.542 24.0583 72.2048 24.057 71.7715C24.0543 71.3395 24.3928 70.9793 24.8654 70.9644C25.5059 70.9441 26.1465 70.959 26.8628 70.959C26.8628 70.7559 26.8628 70.5785 26.8628 70.4011C26.8628 67.2581 26.8628 64.1164 26.8628 60.9734C26.8628 60.215 26.9197 60.1541 27.655 60.1527C30.1047 60.1527 32.553 60.1514 35.0027 60.1527C35.7164 60.1527 35.7841 60.2218 35.7841 60.9327C35.7841 64.0758 35.7841 67.2174 35.7841 70.3605V70.9306H37.9331C37.9331 70.7098 37.9331 70.5121 37.9331 70.3144C37.9331 65.5505 37.9331 60.7851 37.9331 56.0212C37.9331 55.2669 37.9846 55.2168 38.7416 55.2155C41.2075 55.2155 43.6734 55.2141 46.1394 55.2155C46.8029 55.2155 46.8611 55.2737 46.8611 55.9426C46.8611 60.7242 46.8611 65.5058 46.8611 70.2873V70.9211H49.0346V70.2927C49.0346 62.555 49.0346 54.8173 49.0346 47.0783C49.0346 46.2089 49.04 46.2048 49.9134 46.2048C52.3455 46.2048 54.7776 46.2048 57.211 46.2048C57.8962 46.2048 57.9612 46.2698 57.9612 46.9632C57.9612 54.7347 57.9612 62.5063 57.9612 70.2792C57.9612 70.481 57.9612 70.6827 57.9612 70.9197H60.1103C60.1103 70.718 60.1103 70.5054 60.1103 70.2941C60.1103 60.4276 60.1103 50.5612 60.1103 40.6947C60.1103 39.8267 60.1144 39.8226 60.9932 39.8226C63.4253 39.8226 65.8574 39.8226 68.2908 39.8226C68.9896 39.8226 69.0343 39.8687 69.0343 40.5796C69.0343 50.4799 69.0343 60.3802 69.0343 70.2819V70.9576L69.0356 70.959Z" fill="url(#paint0_linear_9712_9127)"/>
<path d="M38.8905 47.341C38.6495 47.5522 38.3854 47.7432 38.1715 47.9788C37.8586 48.3241 37.8749 48.7642 38.1687 49.077C38.4775 49.4061 38.9311 49.4291 39.3062 49.1149C39.5771 48.8901 39.8303 48.6437 40.1228 48.3796C39.6868 47.9653 39.3117 47.6105 38.9041 47.2232C39.5175 46.6124 40.1147 46.0207 40.7092 45.4262C42.1784 43.9569 43.6464 42.4863 45.117 41.0184C45.6465 40.4902 45.9918 40.4781 46.5592 40.9737C47.2186 41.5492 47.8673 42.1369 48.4726 42.6759C50.6704 40.4821 52.8384 38.3195 55.0484 36.1136C54.7465 36.1136 54.4485 36.1325 54.1533 36.1095C53.6672 36.0716 53.3503 35.729 53.3638 35.2916C53.376 34.8705 53.6821 34.5292 54.1466 34.5184C55.1419 34.494 56.1399 34.4926 57.1352 34.5143C57.6484 34.5251 57.9436 34.8325 57.9545 35.3593C57.9748 36.3221 57.9748 37.2849 57.9545 38.2477C57.9436 38.7569 57.5753 39.109 57.1339 39.1036C56.6802 39.0968 56.3647 38.7515 56.3457 38.2274C56.3362 37.9607 56.3444 37.6925 56.3444 37.2917C56.1358 37.4867 56.0072 37.6018 55.8853 37.7237C53.7241 39.8863 51.5628 42.0489 49.4016 44.2115C48.7773 44.8358 48.4712 44.8453 47.8145 44.2643C47.1834 43.705 46.5551 43.1417 45.9593 42.6109C44.0282 44.5473 42.1148 46.4662 40.1837 48.4026C40.1702 48.3823 40.1878 48.4392 40.2244 48.4609C41.0098 48.9348 41.1141 49.658 41.0667 50.5003C41.0098 51.5078 41.0531 52.5207 41.0531 53.5688H37.9372C37.9372 52.7482 37.9616 51.9248 37.9223 51.1042C37.9101 50.8537 37.7828 50.5504 37.6054 50.377C36.6385 49.4345 35.6351 48.5286 34.652 47.601C34.3554 47.322 34.0521 47.081 33.6215 47.2503C33.1814 47.4236 33.1556 47.8109 33.1394 48.2171C33.0161 51.543 32.8821 54.8674 32.7507 58.1933C32.7467 58.2908 32.7277 58.3883 32.7142 58.5007H29.5698V57.8263C29.5698 51.2207 29.5698 44.615 29.5698 38.0094C29.5698 37.8401 29.5766 37.6709 29.5657 37.503C29.5346 37.0737 29.3612 36.7487 28.8914 36.6891C28.4634 36.6349 28.1601 36.8773 28.0612 37.3851C27.8568 38.4455 27.6699 39.5085 27.4803 40.5729C27.1661 42.3333 26.8601 44.0964 26.5365 45.8555C26.485 46.1344 26.3943 46.4147 26.267 46.6666C25.9772 47.2408 25.487 47.448 24.9264 47.2733C24.2696 47.0688 24.0231 46.6707 24.0976 45.976C24.4185 42.9873 24.7449 40 25.0469 37.01C25.2514 34.9896 26.4715 33.3592 28.2089 32.9083C28.6435 32.7959 29.1094 32.7552 29.5603 32.7566C33.7664 32.7634 37.971 32.7877 42.1771 32.804C43.0695 32.8081 43.2225 32.6726 43.3972 31.8073C43.7032 30.2852 44.0079 28.7632 44.3261 27.2451C44.5658 26.1049 45.3567 25.6405 46.1935 26.1307C46.5659 26.3487 46.7433 26.6656 46.6878 27.1016C46.4102 29.3292 46.1204 31.5555 45.8618 33.7858C45.7859 34.4344 45.446 34.773 44.8475 34.9504C43.0383 35.4893 41.2332 36.0472 39.4268 36.597C38.659 36.8313 38.5384 36.9897 38.5384 37.7792C38.5384 40.5837 38.5317 43.3882 38.5466 46.1926C38.5479 46.5434 38.6725 46.8928 38.7402 47.2435C38.7903 47.2773 38.8404 47.3098 38.8919 47.3437L38.8905 47.341Z" fill="url(#paint1_linear_9712_9127)"/>
<path d="M63.1545 32.7742C62.1172 32.3409 61.3561 31.7017 60.8104 30.808C60.7563 30.7186 60.6439 30.6319 60.5436 30.6102C58.5178 30.1783 57.6985 28.7347 57.3925 26.8606C57.3573 26.6439 57.3302 26.4259 57.314 26.2065C57.2341 25.1516 57.7216 24.6194 58.771 24.6113C59.0703 24.6086 59.3696 24.6113 59.6851 24.6113C59.6851 24.3567 59.6946 24.1576 59.6838 23.9599C59.6553 23.4183 59.7515 23.3072 60.308 23.3072C63.1274 23.3045 65.9468 23.3059 68.7648 23.3072C69.4459 23.3072 69.5136 23.3871 69.4608 24.0764C69.45 24.2267 69.4595 24.3784 69.4595 24.6126C69.8034 24.6126 70.1474 24.6072 70.4927 24.6126C71.354 24.6275 71.8577 25.0527 71.8306 25.9113C71.7656 28.036 71.0317 30.1024 68.6483 30.6008C68.5441 30.6224 68.429 30.6901 68.3599 30.77C68.0186 31.1641 67.7302 31.6123 67.347 31.9576C66.9773 32.2894 66.5155 32.5196 65.9644 32.8785C66.223 33.5542 66.4911 34.2895 66.7945 35.0086C66.8419 35.121 67.0423 35.2022 67.1858 35.2334C67.3632 35.2726 67.5555 35.2361 67.741 35.251C68.2001 35.2902 68.452 35.5692 68.475 36.008C68.4967 36.4237 68.2773 36.7175 67.8575 36.8164C67.695 36.8543 67.523 36.8611 67.3565 36.8624C65.4999 36.8651 63.642 36.8665 61.7854 36.8624C61.6012 36.8624 61.4103 36.8516 61.2356 36.7988C60.824 36.6729 60.6371 36.3641 60.6845 35.9457C60.7292 35.5503 60.9837 35.2117 61.371 35.2726C62.3135 35.4202 62.5573 34.8109 62.7712 34.1284C62.9067 33.6964 63.0191 33.259 63.1572 32.7715L63.1545 32.7742ZM63.9561 28.1402C63.7964 27.9249 63.6975 27.7381 63.5499 27.6013C63.1748 27.2519 62.6941 27.2506 62.3758 27.5742C62.0481 27.906 62.0549 28.3677 62.4165 28.7456C62.7076 29.0502 63.0204 29.3333 63.3251 29.6244C63.9047 30.1783 64.2879 30.1756 64.8242 29.5987C65.443 28.9311 66.0551 28.2567 66.6645 27.5796C67.0951 27.1016 67.1181 26.6344 66.7444 26.2918C66.3625 25.9438 65.9156 26.0088 65.4701 26.4895C65.0016 26.9946 64.5384 27.5065 63.9575 28.1416L63.9561 28.1402ZM58.9552 26.2525C59.0974 27.1923 59.2111 28.0847 60.1239 28.7577C60.0358 27.8491 59.96 27.0583 59.8815 26.2525H58.9539H58.9552ZM69.2604 26.2525C69.1846 27.0854 69.1142 27.8681 69.0316 28.774C69.9294 28.0563 70.0743 27.1856 70.1731 26.2525H69.2604Z" fill="url(#paint2_linear_9712_9127)"/>
<path d="M30.7208 26.9025C30.7086 24.7846 32.2321 23.2639 34.1455 23.3086C36.0156 23.3519 37.4849 24.9539 37.3806 26.866C37.321 27.9574 37.0651 29.0029 36.4503 29.9277C35.2234 31.7748 32.8889 31.7843 31.6579 29.9399C31.012 28.9717 30.7682 27.8762 30.7195 26.9025H30.7208Z" fill="url(#paint3_linear_9712_9127)"/>
<defs>
<linearGradient id="paint0_linear_9712_9127" x1="24.057" y1="44.3614" x2="71.8515" y2="43.8695" gradientUnits="userSpaceOnUse">
<stop stop-color="#268B63"/>
<stop offset="0.955" stop-color="#62BF99"/>
</linearGradient>
<linearGradient id="paint1_linear_9712_9127" x1="24.057" y1="44.3614" x2="71.8515" y2="43.8695" gradientUnits="userSpaceOnUse">
<stop stop-color="#268B63"/>
<stop offset="0.955" stop-color="#62BF99"/>
</linearGradient>
<linearGradient id="paint2_linear_9712_9127" x1="24.057" y1="44.3614" x2="71.8515" y2="43.8695" gradientUnits="userSpaceOnUse">
<stop stop-color="#268B63"/>
<stop offset="0.955" stop-color="#62BF99"/>
</linearGradient>
<linearGradient id="paint3_linear_9712_9127" x1="24.057" y1="44.3614" x2="71.8515" y2="43.8695" gradientUnits="userSpaceOnUse">
<stop stop-color="#268B63"/>
<stop offset="0.955" stop-color="#62BF99"/>
</linearGradient>
</defs>
</svg>
