<svg width="32" height="32" viewBox="0 0 32 32" fill="none" xmlns="http://www.w3.org/2000/svg">
<path d="M17.3334 15.467V10.667C17.3334 10.2892 17.2056 9.97255 16.9501 9.71699C16.6945 9.46144 16.3779 9.33366 16.0001 9.33366C15.6223 9.33366 15.3056 9.46144 15.0501 9.71699C14.7945 9.97255 14.6667 10.2892 14.6667 10.667V15.967C14.6667 16.1448 14.7001 16.317 14.7667 16.4837C14.8334 16.6503 14.9334 16.8003 15.0667 16.9337L19.4667 21.3337C19.7112 21.5781 20.0223 21.7003 20.4001 21.7003C20.7779 21.7003 21.089 21.5781 21.3334 21.3337C21.5779 21.0892 21.7001 20.7781 21.7001 20.4003C21.7001 20.0225 21.5779 19.7114 21.3334 19.467L17.3334 15.467ZM16.0001 29.3337C14.1556 29.3337 12.4223 28.9837 10.8001 28.2837C9.17786 27.5837 7.76675 26.6337 6.56675 25.4337C5.36675 24.2337 4.41675 22.8225 3.71675 21.2003C3.01675 19.5781 2.66675 17.8448 2.66675 16.0003C2.66675 14.1559 3.01675 12.4225 3.71675 10.8003C4.41675 9.1781 5.36675 7.76699 6.56675 6.56699C7.76675 5.36699 9.17786 4.41699 10.8001 3.71699C12.4223 3.01699 14.1556 2.66699 16.0001 2.66699C17.8445 2.66699 19.5779 3.01699 21.2001 3.71699C22.8223 4.41699 24.2334 5.36699 25.4334 6.56699C26.6334 7.76699 27.5834 9.1781 28.2834 10.8003C28.9834 12.4225 29.3334 14.1559 29.3334 16.0003C29.3334 17.8448 28.9834 19.5781 28.2834 21.2003C27.5834 22.8225 26.6334 24.2337 25.4334 25.4337C24.2334 26.6337 22.8223 27.5837 21.2001 28.2837C19.5779 28.9837 17.8445 29.3337 16.0001 29.3337ZM16.0001 26.667C18.9556 26.667 21.4723 25.6281 23.5501 23.5503C25.6279 21.4725 26.6667 18.9559 26.6667 16.0003C26.6667 13.0448 25.6279 10.5281 23.5501 8.45033C21.4723 6.37255 18.9556 5.33366 16.0001 5.33366C13.0445 5.33366 10.5279 6.37255 8.45008 8.45033C6.3723 10.5281 5.33341 13.0448 5.33341 16.0003C5.33341 18.9559 6.3723 21.4725 8.45008 23.5503C10.5279 25.6281 13.0445 26.667 16.0001 26.667Z" fill="#FEFEFE"/>
</svg>
