<svg width="48" height="48" viewBox="0 0 48 48" fill="none" xmlns="http://www.w3.org/2000/svg">
<path d="M43.7808 2.00753C45.0023 2.00753 45.9925 2.99773 45.9925 4.21921V31.9398C45.9925 39.6888 39.6888 45.9925 31.9398 45.9925H4.21921C2.99773 45.9925 2.00753 45.0023 2.00753 43.7808V16.0602C2.00753 8.31117 8.31117 2.00753 16.0602 2.00753H43.7808ZM48 2.21168C48 0.990204 47.0098 0 45.7883 0H16.0602C7.19364 0 0 7.19364 0 16.0602V45.7883C0 47.0098 0.990202 48 2.21168 48H31.9398C40.8064 48 48 40.8064 48 31.9398V2.21168Z" fill="#FEFEFE"/>
<path d="M27.588 41.4974C37.2542 39.5132 43.4816 30.0688 41.4974 20.4027C39.5133 10.7366 30.0688 4.50911 20.4027 6.49328C10.7366 8.47745 4.50912 17.9219 6.49329 27.588C8.47746 37.2541 17.9219 43.4816 27.588 41.4974Z" fill="#FEFEFE"/>
<path d="M21.1728 35.2197H25.6897V23.9039H28.8415L29.1761 20.1164H25.6897V17.9616C25.6897 17.0716 25.8704 16.717 26.7336 16.717H29.1761V12.7822H26.0444C22.6851 12.7822 21.1661 14.2611 21.1661 17.0984V20.1164H18.8173V23.9508H21.1661V35.2197H21.1728Z" fill="#278C64"/>
</svg>
