<svg width="96" height="96" viewBox="0 0 96 96" fill="none" xmlns="http://www.w3.org/2000/svg">
<rect width="96" height="96" rx="48" fill="#F0F9F8"/>
<g clip-path="url(#clip0_9712_9119)">
<path d="M66.4112 74.0001H65.5999C64.5293 73.5457 64.1789 72.7075 64.1661 71.5843C64.1481 69.913 64.0274 68.2443 63.9466 66.5743C63.885 65.3112 63.8156 64.0494 63.7489 62.7799C63.3625 62.6348 63.3035 62.8389 63.2894 63.1367C63.1507 65.953 62.971 68.7693 62.8799 71.5882C62.8439 72.7075 62.5153 73.5483 61.4435 74.0001H60.6322C59.5886 73.6343 59.1586 72.8821 59.1317 71.7948C59.0906 70.0901 58.9866 68.3868 58.9032 66.6834C58.8403 65.3741 58.7697 64.0648 58.7004 62.7221C57.9186 62.7221 57.1947 62.7336 56.4707 62.7195C55.5799 62.7016 55.1396 62.147 55.3308 61.2844C56.033 58.1061 56.7261 54.9266 57.4514 51.7547C57.9623 49.5174 58.5271 47.2902 58.2549 44.9617C58.237 44.8039 58.2293 44.6434 58.2177 44.4842C58.1574 44.4727 58.0958 44.4611 58.0354 44.4496C57.685 45.7075 57.2717 46.9527 57.0034 48.2273C56.7711 49.3287 56.6902 50.4647 56.5631 51.5866C56.463 52.4697 56.0214 53.0371 55.291 53.2219C55.0407 53.2848 54.7827 53.3991 54.5825 53.5582C53.7686 54.2077 52.8585 54.607 51.8214 54.7122C51.5929 54.7353 51.3644 54.743 51.2027 54.7533C51.2027 55.9792 51.0422 57.1819 51.236 58.3256C51.6352 60.6837 52.227 63.0096 52.7302 65.3497C52.8816 66.0531 52.657 66.3188 51.9343 66.333C51.6006 66.3394 51.2656 66.333 50.9126 66.333C50.8907 66.5358 50.8689 66.6847 50.8599 66.8336C50.747 68.7885 50.6225 70.7435 50.5352 72.6998C50.5069 73.33 50.2566 73.7562 49.6803 73.9988H49.1732C48.5481 73.6984 48.371 73.1786 48.3517 72.5162C48.3016 70.7461 48.2054 68.9785 48.1258 67.2097C48.113 66.9388 48.086 66.668 48.0655 66.3971C47.9204 66.6962 47.8909 66.994 47.8742 67.2918C47.7741 69.0928 47.6598 70.8937 47.5867 72.6972C47.561 73.3275 47.312 73.7524 46.7407 73.9988H46.2337C45.6291 73.7113 45.4289 73.2209 45.4109 72.5688C45.3608 70.8295 45.2671 69.0915 45.1863 67.3547C45.1709 67.0248 45.1336 66.6949 45.1028 66.3342C44.8679 66.3342 44.6831 66.3342 44.4995 66.3342C44.3134 66.3342 44.1273 66.3407 43.9424 66.3304C43.3597 66.2983 43.1312 66.0031 43.2557 65.4267C43.5163 64.2227 43.7845 63.0212 44.0515 61.8197C44.5303 59.6658 45.1632 57.5336 44.9514 55.2834C44.9347 55.1063 44.9334 54.9279 44.9244 54.7302C43.2043 54.7687 41.8655 54.073 40.7513 52.8843C40.6833 52.8112 40.605 52.7329 40.5164 52.6982C39.5948 52.3349 39.3868 51.6097 39.4112 50.6996C39.4702 48.5508 39.3688 46.4058 38.8246 44.3148C38.573 43.3469 38.2072 42.4073 37.8927 41.4561C37.7553 41.5254 37.7361 41.5537 37.7386 41.5794C38.0916 44.4778 38.4331 47.3788 38.804 50.276C38.9992 51.7958 38.8271 53.2309 38.0557 54.58C37.9209 54.8162 37.8683 55.1217 37.8554 55.399C37.6 60.8159 37.3356 66.2315 37.1276 71.6498C37.0853 72.7614 36.7438 73.5701 35.6874 74.0027H34.7747C33.6811 73.5341 33.3756 72.6561 33.3473 71.5304C33.2818 69.0183 33.1394 66.5075 33.0238 63.9967C32.9609 62.6335 32.8878 61.2703 32.8197 59.9071C32.771 60.0008 32.7568 60.0958 32.7517 60.1921C32.5784 64.0353 32.3859 67.8772 32.2447 71.7204C32.2036 72.8371 31.8262 73.642 30.7184 74.0027H29.9072C29.0882 73.624 28.5427 73.0553 28.5016 72.0926C28.404 69.7975 28.2936 67.5023 28.1845 65.2085C28.0279 61.9018 27.87 58.5939 27.7019 55.2873C27.6916 55.0781 27.6326 54.8483 27.5273 54.6699C26.7405 53.3516 26.5338 51.937 26.7263 50.4287C27.0896 47.5816 27.4221 44.732 27.7648 41.8823C27.7815 41.7475 27.7674 41.6089 27.7674 41.4715C27.7134 41.46 27.6595 41.4471 27.6056 41.4356C27.2898 42.3881 26.9202 43.3251 26.6686 44.2942C26.0948 46.5034 26.0293 48.7639 26.073 51.0333C26.0922 52.0358 25.4658 52.7316 24.5544 52.7688C23.6828 52.8035 23.0064 52.1552 22.9127 51.1848C22.8562 50.5969 22.81 50.0077 22.765 49.4185C22.5699 46.8256 22.6636 44.2506 23.3298 41.7257C24.082 38.8735 25.4478 36.3858 27.9073 34.6452C30.5888 32.7467 33.459 32.4707 36.4152 33.9469C38.8913 35.183 40.4728 37.2561 41.4945 39.7707C43.0298 43.551 42.9977 47.4828 42.5176 51.4428C42.4804 51.7522 42.524 51.8857 42.7936 52.0294C43.9232 52.6314 44.9565 52.4492 45.9757 51.7496C47.5007 50.7034 48.6623 50.7227 50.1616 51.8009C51.2104 52.5557 52.2758 52.5775 53.399 51.955C53.399 51.7817 53.4002 51.6135 53.399 51.4454C53.363 48.4904 53.6428 45.5856 54.6133 42.7654C55.603 39.8927 57.2704 37.5526 59.8056 35.8505C62.0429 34.3474 64.3227 34.1715 66.7102 35.5296C68.5574 36.5796 69.9732 38.034 71.0053 39.8631C73.0848 43.551 73.5289 47.5816 73.4018 51.7175C73.3813 52.3683 72.9538 52.8022 72.3441 53.0076C71.3005 53.3593 70.4251 52.6186 70.2595 51.3799C70.0271 49.6431 69.7345 47.9128 69.4213 46.1889C69.3134 45.5933 69.0657 45.0233 68.8821 44.4419C68.7807 45.6806 68.5869 46.9295 68.8167 48.0925C69.6729 52.4273 70.6664 56.7352 71.6112 61.0521C71.8679 62.2266 71.4841 62.7208 70.2967 62.7234C69.6613 62.7247 69.0259 62.7234 68.3713 62.7234C68.3559 62.9288 68.3443 63.0597 68.3379 63.1919C68.1916 66.0595 68.026 68.9272 67.9117 71.7961C67.8694 72.8808 67.4535 73.6355 66.4086 74.0001H66.4112Z" fill="url(#paint0_linear_9712_9119)"/>
<path d="M27.4529 27.3811C27.4773 24.4634 29.8841 22.081 32.7966 22.0938C35.6899 22.1066 38.1134 24.5455 38.1045 27.4337C38.0942 30.3745 35.6335 32.7775 32.6683 32.7403C29.7942 32.7056 27.4285 30.2744 27.4529 27.3811Z" fill="url(#paint1_linear_9712_9119)"/>
<path d="M68.7795 29.0049C68.7563 31.9239 66.3765 34.2742 63.4614 34.2549C60.5745 34.2357 58.1779 31.7891 58.2241 28.9073C58.2703 25.9883 60.6618 23.6637 63.5833 23.6958C66.4792 23.7279 68.8026 26.1013 68.7807 29.0036L68.7795 29.0049Z" fill="url(#paint2_linear_9712_9119)"/>
<path d="M51.0987 47.5547C51.1154 49.235 49.7072 50.629 47.9961 50.6238C46.3454 50.62 44.9642 49.2208 44.9501 47.5393C44.936 45.9373 46.3249 44.5048 47.914 44.4817C49.7098 44.456 51.0807 45.7794 51.0987 47.5547Z" fill="url(#paint3_linear_9712_9119)"/>
</g>
<defs>
<linearGradient id="paint0_linear_9712_9119" x1="22.675" y1="44.2742" x2="73.4366" y2="43.7473" gradientUnits="userSpaceOnUse">
<stop stop-color="#268B63"/>
<stop offset="0.955" stop-color="#62BF99"/>
</linearGradient>
<linearGradient id="paint1_linear_9712_9119" x1="22.675" y1="44.2742" x2="73.4366" y2="43.7473" gradientUnits="userSpaceOnUse">
<stop stop-color="#268B63"/>
<stop offset="0.955" stop-color="#62BF99"/>
</linearGradient>
<linearGradient id="paint2_linear_9712_9119" x1="22.675" y1="44.2742" x2="73.4366" y2="43.7473" gradientUnits="userSpaceOnUse">
<stop stop-color="#268B63"/>
<stop offset="0.955" stop-color="#62BF99"/>
</linearGradient>
<linearGradient id="paint3_linear_9712_9119" x1="22.675" y1="44.2742" x2="73.4366" y2="43.7473" gradientUnits="userSpaceOnUse">
<stop stop-color="#268B63"/>
<stop offset="0.955" stop-color="#62BF99"/>
</linearGradient>
<clipPath id="clip0_9712_9119">
<rect width="52" height="52" fill="white" transform="translate(22 22)"/>
</clipPath>
</defs>
</svg>
