<svg width="48" height="48" viewBox="0 0 48 48" fill="none" xmlns="http://www.w3.org/2000/svg">
<path d="M43.7808 2.00753C45.0023 2.00753 45.9925 2.99773 45.9925 4.21921V31.9398C45.9925 39.6888 39.6888 45.9925 31.9398 45.9925H4.21921C2.99773 45.9925 2.00753 45.0023 2.00753 43.7808V16.0602C2.00753 8.31117 8.31117 2.00753 16.0602 2.00753H43.7808ZM48 2.21168C48 0.990204 47.0098 0 45.7883 0H16.0602C7.19364 0 0 7.19364 0 16.0602V45.7883C0 47.0098 0.990202 48 2.21168 48H31.9398C40.8064 48 48 40.8064 48 31.9398V2.21168Z" fill="#FEFEFE"/>
<path d="M27.5977 41.4964C37.2639 39.5123 43.4913 30.0678 41.5072 20.4017C39.523 10.7356 30.0785 4.50813 20.4124 6.4923C10.7463 8.47647 4.51883 17.9209 6.503 27.587C8.48717 37.2532 17.9316 43.4806 27.5977 41.4964Z" fill="#FEFEFE"/>
<path d="M24.0034 15.6529C26.7203 15.6529 27.0415 15.6663 28.1189 15.7131C29.1093 15.7599 29.6513 15.9272 30.006 16.0611C30.4811 16.2484 30.8223 16.4693 31.177 16.8239C31.5317 17.1786 31.7525 17.5199 31.9399 17.995C32.0804 18.3563 32.2477 18.8917 32.2878 19.8821C32.3347 20.9528 32.3481 21.274 32.3481 23.9975C32.3481 26.7211 32.3347 27.0356 32.2878 28.1129C32.241 29.1033 32.0737 29.6454 31.9399 30C31.7525 30.4751 31.5317 30.8164 31.177 31.1711C30.8223 31.5257 30.4811 31.7466 30.006 31.9339C29.6446 32.0745 29.1093 32.2418 28.1189 32.2819C27.0482 32.3288 26.727 32.3421 24.0034 32.3421C21.2799 32.3421 20.9654 32.3288 19.888 32.2819C18.8976 32.2351 18.3556 32.0678 18.0009 31.9339C17.5258 31.7466 17.1845 31.5257 16.8299 31.1711C16.4752 30.8164 16.2544 30.4751 16.067 30C15.9265 29.6387 15.7592 29.1033 15.7191 28.1129C15.6722 27.0423 15.6588 26.7211 15.6588 23.9975C15.6588 21.274 15.6722 20.9594 15.7191 19.8821C15.7659 18.8917 15.9332 18.3497 16.067 17.995C16.2544 17.5199 16.4752 17.1786 16.8299 16.8239C17.1845 16.4693 17.5258 16.2484 18.0009 16.0611C18.3623 15.9205 18.8976 15.7533 19.888 15.7131C20.9587 15.6663 21.2866 15.6529 24.0034 15.6529ZM24.0034 13.8193C21.2397 13.8193 20.8918 13.8327 19.8077 13.8796C18.7237 13.9264 17.9876 14.1004 17.3385 14.3547C16.6693 14.6157 16.1005 14.9636 15.5384 15.5257C14.9696 16.0945 14.6216 16.6566 14.3673 17.3258C14.113 17.9749 13.9457 18.711 13.8922 19.7951C13.8454 20.8791 13.832 21.2271 13.832 23.9908C13.832 26.7545 13.8454 27.1025 13.8922 28.1865C13.939 29.2706 14.113 30.0067 14.3673 30.6558C14.6283 31.325 14.9763 31.8938 15.5384 32.4559C16.1072 33.0247 16.6693 33.3727 17.3385 33.627C17.9876 33.8812 18.7237 34.0485 19.8077 34.1021C20.8918 34.1489 21.2397 34.1623 24.0034 34.1623C26.7671 34.1623 27.1151 34.1489 28.1992 34.1021C29.2832 34.0552 30.0193 33.8812 30.6684 33.627C31.3376 33.366 31.9064 33.018 32.4685 32.4559C33.0373 31.8871 33.3853 31.325 33.6396 30.6558C33.8939 30.0067 34.0612 29.2706 34.1147 28.1865C34.1615 27.1025 34.1749 26.7545 34.1749 23.9908C34.1749 21.2271 34.1615 20.8791 34.1147 19.7951C34.0679 18.711 33.8939 17.9749 33.6396 17.3258C33.3786 16.6566 33.0306 16.0878 32.4685 15.5257C31.8997 14.9569 31.3376 14.609 30.6684 14.3547C30.0193 14.1004 29.2832 13.9331 28.1992 13.8796C27.1151 13.8327 26.7671 13.8193 24.0034 13.8193Z" fill="#278C64"/>
<path d="M24.0038 18.7715C21.1196 18.7715 18.7775 21.1136 18.7775 23.9978C18.7775 26.8819 21.1196 29.224 24.0038 29.224C26.8879 29.224 29.2301 26.8819 29.2301 23.9978C29.2301 21.1136 26.8879 18.7715 24.0038 18.7715ZM24.0038 27.3905C22.1301 27.3905 20.6111 25.8714 20.6111 23.9978C20.6111 22.1241 22.1301 20.605 24.0038 20.605C25.8775 20.605 27.3965 22.1241 27.3965 23.9978C27.3965 25.8714 25.8775 27.3905 24.0038 27.3905Z" fill="#278C64"/>
<path d="M30.6549 18.5635C30.6549 19.2393 30.1062 19.7881 29.4303 19.7881C28.7545 19.7881 28.2057 19.2393 28.2057 18.5635C28.2057 17.8876 28.7545 17.3389 29.4303 17.3389C30.1062 17.3389 30.6549 17.8876 30.6549 18.5635Z" fill="#278C64"/>
</svg>
