<svg width="96" height="96" viewBox="0 0 96 96" fill="none" xmlns="http://www.w3.org/2000/svg">
<rect width="96" height="96" rx="48" fill="#F0F9F8"/>
<path d="M48.8626 72.5804V71.9683C48.8626 67.9315 48.8626 63.8947 48.8626 59.8593C48.8626 59.69 48.8802 59.5167 48.8463 59.3542C48.761 58.9466 48.5119 58.6934 48.0785 58.6839C47.6208 58.6731 47.3527 58.9222 47.2593 59.3542C47.2241 59.5167 47.2417 59.69 47.2417 59.8593C47.2417 63.8961 47.2417 67.9329 47.2417 71.9683C47.2417 72.1511 47.2417 72.3339 47.2417 72.556C47.0467 72.5655 46.8842 72.5804 46.7217 72.5804C45.354 72.5817 43.9849 72.5614 42.6185 72.5925C42.1351 72.6034 41.9767 72.4652 41.9834 71.971C42.0078 69.9614 41.9943 67.9518 41.9943 65.9422C41.9943 60.1152 41.9902 54.2883 42.0024 48.4626C42.0024 48.0821 41.9211 47.9101 41.5162 47.814C40.1553 47.4904 38.8147 47.0827 37.4537 46.7591C36.5573 46.5465 35.738 46.1998 34.9472 45.7286C32.9335 44.5274 30.8928 43.3696 28.871 42.1834C27.9624 41.6498 27.5778 40.8306 27.6929 39.7919C27.7931 38.8819 28.4959 38.1019 29.4086 37.8676C30.079 37.6957 30.7032 37.823 31.3031 38.1737C33.1949 39.2841 35.0907 40.3864 36.9974 41.4711C37.2601 41.62 37.5946 41.7148 37.8966 41.7162C44.6687 41.7297 51.4409 41.7297 58.2131 41.7162C58.5151 41.7162 58.8509 41.6255 59.1136 41.4751C61.0487 40.3742 62.9622 39.234 64.8973 38.1317C66.3219 37.3206 67.9997 38.0342 68.3843 39.5874C68.6388 40.6152 68.1784 41.6404 67.1628 42.2375C65.3008 43.3317 63.4118 44.3798 61.5715 45.5079C60.4773 46.1782 59.3208 46.6305 58.0818 46.9257C56.9172 47.2033 55.7702 47.5499 54.6043 47.8208C54.2048 47.9128 54.1114 48.0808 54.1114 48.4654C54.1222 56.2518 54.1195 64.0369 54.1195 71.8234C54.1195 72.3316 53.8604 72.5858 53.3422 72.5858C51.8743 72.5858 50.4077 72.5858 48.868 72.5858L48.8626 72.5804Z" fill="url(#paint0_linear_9712_9136)"/>
<path d="M69.041 29.2281C69.0424 32.493 66.3801 35.1647 63.1247 35.1634C59.8815 35.162 57.1934 32.4618 57.2043 29.2199C57.2151 25.9889 59.8801 23.3252 63.1084 23.3185C66.376 23.3117 69.0397 25.9645 69.041 29.2294V29.2281ZM62.5776 29.2809C62.3501 29.071 62.1727 28.8895 61.9777 28.7324C61.5918 28.4196 61.153 28.4426 60.8429 28.7758C60.5369 29.1048 60.5409 29.5504 60.8835 29.9106C61.2207 30.264 61.5769 30.6012 61.9357 30.9343C62.4327 31.3947 62.8647 31.3731 63.3319 30.8652C63.9954 30.1462 64.6549 29.4217 65.309 28.6945C65.7111 28.2476 65.7355 27.7723 65.3902 27.4379C65.0192 27.079 64.5425 27.1345 64.1105 27.6004C63.6068 28.1447 63.1098 28.6959 62.5762 29.2822L62.5776 29.2809Z" fill="url(#paint1_linear_9712_9136)"/>
<path d="M27.0605 29.1929C27.0741 25.9374 29.7567 23.2982 33.0283 23.3185C36.2526 23.3388 38.9108 26.0282 38.8973 29.2551C38.8824 32.5065 36.1849 35.1823 32.9417 35.1634C29.6862 35.1444 27.0483 32.4645 27.0619 29.1929H27.0605ZM32.966 30.4482C33.203 30.7 33.4007 30.9248 33.6147 31.1334C33.9884 31.5004 34.4448 31.5261 34.7847 31.2119C35.1286 30.8923 35.1408 30.4509 34.7982 30.0379C34.5748 29.7684 34.331 29.5138 34.0832 29.2362C34.3459 28.9423 34.6046 28.6769 34.8361 28.3885C35.1449 28.0052 35.1137 27.5557 34.7793 27.2537C34.457 26.9625 33.9871 26.9788 33.6418 27.3119C33.4156 27.5299 33.2071 27.7669 32.966 28.0201C32.7426 27.7777 32.5557 27.5638 32.3567 27.3607C31.991 26.9896 31.5252 26.9463 31.184 27.2401C30.821 27.553 30.8061 28.035 31.1596 28.4521C31.3844 28.7175 31.6254 28.9681 31.8678 29.2335C31.6159 29.5124 31.3993 29.7467 31.1894 29.9877C30.8237 30.4089 30.8116 30.8774 31.1528 31.2024C31.5103 31.5437 31.9883 31.4936 32.3959 31.0684C32.5801 30.8761 32.7561 30.6757 32.966 30.4455V30.4482Z" fill="url(#paint2_linear_9712_9136)"/>
<path d="M48.0745 30.6093C50.2574 30.6174 52.0205 32.3345 52.0584 34.5662C52.0828 35.9745 51.7456 37.3151 50.9683 38.5122C49.4936 40.7791 46.5944 40.794 45.1441 38.5122C44.1989 37.024 43.7831 35.3733 44.1826 33.6237C44.597 31.8105 46.2206 30.6025 48.0731 30.6093H48.0745Z" fill="url(#paint3_linear_9712_9136)"/>
<defs>
<linearGradient id="paint0_linear_9712_9136" x1="27.0605" y1="44.3732" x2="69.0544" y2="43.9934" gradientUnits="userSpaceOnUse">
<stop stop-color="#268B63"/>
<stop offset="0.955" stop-color="#62BF99"/>
</linearGradient>
<linearGradient id="paint1_linear_9712_9136" x1="27.0605" y1="44.3732" x2="69.0544" y2="43.9934" gradientUnits="userSpaceOnUse">
<stop stop-color="#268B63"/>
<stop offset="0.955" stop-color="#62BF99"/>
</linearGradient>
<linearGradient id="paint2_linear_9712_9136" x1="27.0605" y1="44.3732" x2="69.0544" y2="43.9934" gradientUnits="userSpaceOnUse">
<stop stop-color="#268B63"/>
<stop offset="0.955" stop-color="#62BF99"/>
</linearGradient>
<linearGradient id="paint3_linear_9712_9136" x1="27.0605" y1="44.3732" x2="69.0544" y2="43.9934" gradientUnits="userSpaceOnUse">
<stop stop-color="#268B63"/>
<stop offset="0.955" stop-color="#62BF99"/>
</linearGradient>
</defs>
</svg>
