<svg width="345" height="72" viewBox="0 0 345 72" fill="none" xmlns="http://www.w3.org/2000/svg">
<path d="M156 0.206897C156 0.0926308 156.092 0 156.206 0H159.816C159.816 0 163.322 0.537931 163.281 3.81724C163.239 7.09655 163.281 13.2 163.281 13.2C163.281 13.2 162.909 18.6207 169.293 19.169H170.314V3.0931C170.314 3.0931 170.18 1.11724 168.891 1.07586C167.602 1.03448 166.282 1.2 166.24 0H172.5V30H165.261C165.261 30 164.683 28.9034 168.592 28.7793C169.613 28.7483 170.324 28.8517 170.19 20.8655C170.19 20.8655 159.406 20.33 159.406 13.9162V3.41617C159.406 3.41617 159.486 0.951724 157.743 0.982759L156.42 1.00632C156.189 1.01042 156 0.823994 156 0.592589V0.206897Z" fill="#FEFEFE"/>
<path d="M189 0.206897C189 0.0926308 188.908 0 188.794 0H185.184C185.184 0 181.678 0.537931 181.719 3.81724C181.761 7.09655 181.719 13.2 181.719 13.2C181.719 13.2 182.091 18.6207 175.707 19.169H174.686V3.0931C174.686 3.0931 174.82 1.11724 176.109 1.07586C177.398 1.03448 178.718 1.2 178.76 0H172.5V30H179.739C179.739 30 180.317 28.9034 176.408 28.7793C175.388 28.7483 174.676 28.8517 174.81 20.8655C174.81 20.8655 185.594 20.33 185.594 13.9162V3.41617C185.594 3.41617 185.514 0.951724 187.257 0.982759L188.58 1.00632C188.811 1.01042 189 0.823994 189 0.592589V0.206897Z" fill="#FEFEFE"/>
<path d="M7.61812 71.7759L0 54.2241H2.49007L9.12202 69.8589H8.28378L14.9404 54.2241H17.3318L9.66441 71.7759H7.61812Z" fill="#FEFEFE"/>
<path d="M16.8008 71.7759L24.4929 54.2241H26.4899L34.3052 71.7759H31.9384L29.7935 66.7967L30.7797 67.3942H20.2031L21.2879 66.7967L19.143 71.7759H16.8008ZM25.4544 56.8133L21.6084 66.0249L21.0167 65.5021H29.9661L29.4977 66.0249L25.553 56.8133H25.4544Z" fill="#FEFEFE"/>
<path d="M37.2707 71.7759V54.2241H39.5635V69.7842H48.2171V71.7759H37.2707Z" fill="#FEFEFE"/>
<path d="M51.2946 71.7759V54.2241H62.5369V56.1162H53.5135V61.917H61.9698V63.8091H53.5135V69.8838H62.5369V71.7759H51.2946Z" fill="#FEFEFE"/>
<path d="M66.3298 71.7759V54.2241H73.5288C75.386 54.2241 76.816 54.6639 77.8186 55.5436C78.8376 56.4232 79.3471 57.6515 79.3471 59.2282C79.3471 60.2739 79.117 61.1618 78.6568 61.8921C78.1966 62.6224 77.5474 63.1784 76.7091 63.5602C75.8873 63.9419 74.9258 64.1328 73.8246 64.1328L74.2437 63.7842H74.8354C75.5093 63.7842 76.1092 63.9585 76.6352 64.3071C77.1611 64.639 77.5967 65.1867 77.9418 65.9502L80.4073 71.7759H77.8679L75.4764 66C75.197 65.2863 74.7861 64.8216 74.2437 64.6058C73.7178 64.39 73.0521 64.2822 72.2467 64.2822H68.6226V71.7759H66.3298ZM68.6226 62.4896H73.1836C74.4492 62.4896 75.4107 62.2158 76.0681 61.668C76.742 61.1203 77.079 60.3237 77.079 59.278C77.079 58.249 76.742 57.4689 76.0681 56.9378C75.4107 56.39 74.4492 56.1162 73.1836 56.1162H68.6226V62.4896Z" fill="#FEFEFE"/>
<path d="M83.9652 71.7759V54.2241H86.258V71.7759H83.9652Z" fill="#FEFEFE"/>
<path d="M89.1837 71.7759L96.8758 54.2241H98.8728L106.688 71.7759H104.321L102.176 66.7967L103.163 67.3942H92.586L93.6708 66.7967L91.5259 71.7759H89.1837ZM97.8373 56.8133L93.9913 66.0249L93.3996 65.5021H102.349L101.881 66.0249L97.936 56.8133H97.8373Z" fill="#FEFEFE"/>
<path d="M116.647 71.7759V54.2241H118.94V62.166H118.989L127.15 54.2241H130.034L120.567 63.3112L120.592 62.1909L130.7 71.7759H127.717L118.989 63.5353H118.94V71.7759H116.647Z" fill="#FEFEFE"/>
<path d="M132.934 71.7759V54.2241H140.133C141.991 54.2241 143.421 54.6639 144.423 55.5436C145.442 56.4232 145.952 57.6515 145.952 59.2282C145.952 60.2739 145.722 61.1618 145.261 61.8921C144.801 62.6224 144.152 63.1784 143.314 63.5602C142.492 63.9419 141.53 64.1328 140.429 64.1328L140.848 63.7842H141.44C142.114 63.7842 142.714 63.9585 143.24 64.3071C143.766 64.639 144.201 65.1867 144.546 65.9502L147.012 71.7759H144.473L142.081 66C141.802 65.2863 141.391 64.8216 140.848 64.6058C140.322 64.39 139.657 64.2822 138.851 64.2822H135.227V71.7759H132.934ZM135.227 62.4896H139.788C141.054 62.4896 142.015 62.2158 142.673 61.668C143.347 61.1203 143.684 60.3237 143.684 59.278C143.684 58.249 143.347 57.4689 142.673 56.9378C142.015 56.39 141.054 56.1162 139.788 56.1162H135.227V62.4896Z" fill="#FEFEFE"/>
<path d="M150.57 71.7759V54.2241H152.863V71.7759H150.57Z" fill="#FEFEFE"/>
<path d="M156.528 71.7759V70.0581L166.858 55.3693V56.1909H156.528V54.2241H169.052V55.917L158.698 70.6307V69.8091H169.348V71.7759H156.528Z" fill="#FEFEFE"/>
<path d="M172.815 71.7759V54.2241H175.108V61.8921H185.216V54.2241H187.534V71.7759H185.216V63.8589H175.108V71.7759H172.815Z" fill="#FEFEFE"/>
<path d="M190.457 71.7759L198.149 54.2241H200.146L207.962 71.7759H205.595L203.45 66.7967L204.436 67.3942H193.86L194.944 66.7967L192.799 71.7759H190.457ZM199.111 56.8133L195.265 66.0249L194.673 65.5021H203.623L203.154 66.0249L199.209 56.8133H199.111Z" fill="#FEFEFE"/>
<path d="M210.927 71.7759V54.2241H212.702L223.599 68.7635H223.008V54.2241H225.152V71.7759H223.402L212.505 57.2365H213.072V71.7759H210.927Z" fill="#FEFEFE"/>
<path d="M229.222 62.9876C229.222 61.1452 229.542 59.5519 230.183 58.2075C230.824 56.8631 231.745 55.8257 232.944 55.0954C234.161 54.3651 235.607 54 237.283 54C238.944 54 240.373 54.3651 241.573 55.0954C242.79 55.8257 243.726 56.8631 244.384 58.2075C245.041 59.5519 245.37 61.1369 245.37 62.9627C245.37 64.805 245.041 66.4066 244.384 67.7676C243.726 69.112 242.79 70.1577 241.573 70.9046C240.373 71.6349 238.944 72 237.283 72C235.607 72 234.169 71.6349 232.969 70.9046C231.769 70.1577 230.841 69.112 230.183 67.7676C229.542 66.4066 229.222 64.8133 229.222 62.9876ZM231.638 62.9876C231.638 65.1784 232.114 66.888 233.068 68.1162C234.021 69.3444 235.426 69.9585 237.283 69.9585C239.075 69.9585 240.464 69.3527 241.45 68.1411C242.453 66.9129 242.954 65.195 242.954 62.9876C242.954 60.7801 242.461 59.0705 241.475 57.8589C240.489 56.6473 239.091 56.0415 237.283 56.0415C235.426 56.0415 234.021 56.6473 233.068 57.8589C232.114 59.0705 231.638 60.7801 231.638 62.9876Z" fill="#FEFEFE"/>
<path d="M254.585 71.7759L246.967 54.2241H249.457L256.089 69.8589H255.251L261.907 54.2241H264.299L256.631 71.7759H254.585Z" fill="#FEFEFE"/>
<path d="M272.371 72C270.973 72 269.716 71.8174 268.598 71.4523C267.481 71.0871 266.511 70.5726 265.689 69.9087L266.478 68.0664C267.053 68.4979 267.637 68.8631 268.229 69.1618C268.82 69.444 269.453 69.6598 270.127 69.8091C270.817 69.9419 271.565 70.0083 272.371 70.0083C273.8 70.0083 274.852 69.751 275.526 69.2365C276.217 68.7054 276.562 68.0083 276.562 67.1452C276.562 66.3983 276.323 65.8257 275.847 65.4274C275.37 65.029 274.54 64.7137 273.357 64.4813L270.719 63.9336C269.124 63.6017 267.933 63.0622 267.144 62.3154C266.371 61.5519 265.985 60.5228 265.985 59.2282C265.985 58.1826 266.256 57.2697 266.799 56.4896C267.358 55.6929 268.122 55.0788 269.092 54.6473C270.078 54.2158 271.228 54 272.543 54C273.759 54 274.885 54.1826 275.921 54.5477C276.956 54.9129 277.827 55.4523 278.534 56.166L277.745 57.9336C277.005 57.2531 276.208 56.7635 275.354 56.4647C274.515 56.1494 273.562 55.9917 272.494 55.9917C271.195 55.9917 270.168 56.2739 269.412 56.8382C268.656 57.4025 268.278 58.166 268.278 59.1286C268.278 59.8921 268.516 60.4979 268.993 60.9461C269.47 61.3776 270.258 61.7095 271.36 61.9419L273.998 62.4647C275.674 62.7967 276.899 63.3195 277.671 64.0332C278.46 64.7469 278.855 65.7344 278.855 66.9959C278.855 67.9917 278.592 68.8714 278.066 69.6349C277.54 70.3817 276.792 70.9627 275.822 71.3776C274.852 71.7925 273.702 72 272.371 72Z" fill="#FEFEFE"/>
<path d="M282.6 71.7759V54.2241H284.893V62.166H284.942L293.103 54.2241H295.987L286.52 63.3112L286.545 62.1909L296.653 71.7759H293.67L284.942 63.5353H284.893V71.7759H282.6Z" fill="#FEFEFE"/>
<path d="M296.438 71.7759L304.13 54.2241H306.127L313.943 71.7759H311.576L309.431 66.7967L310.417 67.3942H299.84L300.925 66.7967L298.78 71.7759H296.438ZM305.092 56.8133L301.246 66.0249L300.654 65.5021H309.603L309.135 66.0249L305.19 56.8133H305.092Z" fill="#FEFEFE"/>
<path d="M319.56 71.7759V63.5602L320.053 65.0788L312.805 54.2241H315.467L321.039 62.7884H320.472L326.044 54.2241H328.633L321.384 65.0788L321.853 63.5602V71.7759H319.56Z" fill="#FEFEFE"/>
<path d="M327.496 71.7759L335.188 54.2241H337.185L345 71.7759H342.633L340.488 66.7967L341.474 67.3942H330.898L331.983 66.7967L329.838 71.7759H327.496ZM336.149 56.8133L332.303 66.0249L331.711 65.5021H340.661L340.192 66.0249L336.248 56.8133H336.149Z" fill="#FEFEFE"/>
</svg>
