<svg width="364" height="27" viewBox="0 0 364 27" fill="none" xmlns="http://www.w3.org/2000/svg">
<path d="M0 0.67931C0 0.58028 0.0811484 0.5 0.18125 0.5H3.35313C3.35313 0.5 6.43437 0.966207 6.39813 3.80828C6.36188 6.65034 6.39813 11.94 6.39813 11.94C6.39813 11.94 6.07188 16.6379 11.6816 17.1131H12.5787V3.18069C12.5787 3.18069 12.4609 1.46828 11.3281 1.43241C10.1953 1.39655 9.03531 1.54 8.99906 0.5H14.5V26.5H8.13812C8.13812 26.5 7.63063 25.5497 11.0653 25.4421C11.9625 25.4152 12.5878 25.5048 12.47 18.5834C12.47 18.5834 2.99285 18.1193 2.99285 12.5607V3.46068C2.99285 3.46068 3.06313 1.32483 1.53156 1.35172L0.368934 1.37214C0.166245 1.3757 0 1.21413 0 1.01358V0.67931Z" fill="#FEFEFE"/>
<path d="M29 0.67931C29 0.58028 28.9189 0.5 28.8187 0.5H25.6469C25.6469 0.5 22.5656 0.966207 22.6019 3.80828C22.6381 6.65034 22.6019 11.94 22.6019 11.94C22.6019 11.94 22.9281 16.6379 17.3184 17.1131H16.4212V3.18069C16.4212 3.18069 16.5391 1.46828 17.6719 1.43241C18.8047 1.39655 19.9647 1.54 20.0009 0.5H14.5V26.5H20.8619C20.8619 26.5 21.3694 25.5497 17.9347 25.4421C17.0375 25.4152 16.4122 25.5048 16.53 18.5834C16.53 18.5834 26.0072 18.1193 26.0072 12.5607V3.46068C26.0072 3.46068 25.9369 1.32483 27.4684 1.35172L28.6311 1.37214C28.8338 1.3757 29 1.21413 29 1.01358V0.67931Z" fill="#FEFEFE"/>
<path d="M52.044 21.7884L45 5.21162H47.3024L53.4346 19.9779H52.6595L58.8144 5.21162H61.0257L53.9361 21.7884H52.044Z" fill="#FEFEFE"/>
<path d="M60.5347 21.7884L67.6471 5.21162H69.4935L76.7199 21.7884H74.5315L72.5482 17.0858L73.4601 17.6501H63.6805L64.6836 17.0858L62.7003 21.7884H60.5347ZM68.5361 7.65699L64.9799 16.3568L64.4328 15.8631H72.7078L72.2747 16.3568L68.6273 7.65699H68.5361Z" fill="#FEFEFE"/>
<path d="M79.4619 21.7884V5.21162H81.5819V19.9073H89.5833V21.7884H79.4619Z" fill="#FEFEFE"/>
<path d="M92.4289 21.7884V5.21162H102.824V6.99862H94.4806V12.4772H102.3V14.2642H94.4806V20.0014H102.824V21.7884H92.4289Z" fill="#FEFEFE"/>
<path d="M106.331 21.7884V5.21162H112.987C114.705 5.21162 116.027 5.62702 116.954 6.45782C117.896 7.28861 118.367 8.44859 118.367 9.93776C118.367 10.9253 118.155 11.7639 117.729 12.4537C117.304 13.1434 116.703 13.6685 115.928 14.029C115.168 14.3896 114.279 14.5698 113.261 14.5698L113.649 14.2407H114.196C114.819 14.2407 115.373 14.4053 115.86 14.7344C116.346 15.0479 116.749 15.5652 117.068 16.2863L119.348 21.7884H117L114.788 16.3333C114.53 15.6593 114.15 15.2204 113.649 15.0166C113.162 14.8128 112.547 14.7109 111.802 14.7109H108.451V21.7884H106.331ZM108.451 13.018H112.668C113.839 13.018 114.728 12.7593 115.335 12.242C115.959 11.7248 116.27 10.9723 116.27 9.98479C116.27 9.01291 115.959 8.27616 115.335 7.77455C114.728 7.25726 113.839 6.99862 112.668 6.99862H108.451V13.018Z" fill="#FEFEFE"/>
<path d="M122.637 21.7884V5.21162H124.757V21.7884H122.637Z" fill="#FEFEFE"/>
<path d="M127.463 21.7884L134.575 5.21162H136.422L143.648 21.7884H141.459L139.476 17.0858L140.388 17.6501H130.609L131.612 17.0858L129.628 21.7884H127.463ZM135.464 7.65699L131.908 16.3568L131.361 15.8631H139.636L139.203 16.3568L135.555 7.65699H135.464Z" fill="#FEFEFE"/>
<path d="M152.856 21.7884V5.21162H154.976V12.7123H155.022L162.568 5.21162H165.235L156.481 13.7939L156.504 12.7358L165.85 21.7884H163.092L155.022 14.0055H154.976V21.7884H152.856Z" fill="#FEFEFE"/>
<path d="M167.916 21.7884V5.21162H174.573C176.29 5.21162 177.612 5.62702 178.539 6.45782C179.481 7.28861 179.952 8.44859 179.952 9.93776C179.952 10.9253 179.74 11.7639 179.314 12.4537C178.889 13.1434 178.288 13.6685 177.513 14.029C176.753 14.3896 175.864 14.5698 174.846 14.5698L175.234 14.2407H175.781C176.404 14.2407 176.959 14.4053 177.445 14.7344C177.931 15.0479 178.334 15.5652 178.653 16.2863L180.933 21.7884H178.585L176.374 16.3333C176.115 15.6593 175.735 15.2204 175.234 15.0166C174.747 14.8128 174.132 14.7109 173.387 14.7109H170.036V21.7884H167.916ZM170.036 13.018H174.253C175.424 13.018 176.313 12.7593 176.921 12.242C177.544 11.7248 177.855 10.9723 177.855 9.98479C177.855 9.01291 177.544 8.27616 176.921 7.77455C176.313 7.25726 175.424 6.99862 174.253 6.99862H170.036V13.018Z" fill="#FEFEFE"/>
<path d="M184.223 21.7884V5.21162H186.343V21.7884H184.223Z" fill="#FEFEFE"/>
<path d="M189.732 21.7884V20.166L199.283 6.29322V7.06916H189.732V5.21162H201.312V6.81051L191.738 20.7068V19.9308H201.586V21.7884H189.732Z" fill="#FEFEFE"/>
<path d="M204.792 21.7884V5.21162H206.912V12.4537H216.258V5.21162H218.401V21.7884H216.258V14.3112H206.912V21.7884H204.792Z" fill="#FEFEFE"/>
<path d="M221.104 21.7884L228.216 5.21162H230.063L237.289 21.7884H235.101L233.117 17.0858L234.029 17.6501H224.25L225.253 17.0858L223.27 21.7884H221.104ZM229.105 7.65699L225.549 16.3568L225.002 15.8631H233.277L232.844 16.3568L229.197 7.65699H229.105Z" fill="#FEFEFE"/>
<path d="M240.031 21.7884V5.21162H241.672L251.748 18.9433H251.201V5.21162H253.184V21.7884H251.566L241.49 8.05671H242.014V21.7884H240.031Z" fill="#FEFEFE"/>
<path d="M256.947 13.4882C256.947 11.7483 257.243 10.2434 257.836 8.97372C258.429 7.70401 259.28 6.7243 260.389 6.03458C261.514 5.34486 262.851 5 264.401 5C265.936 5 267.258 5.34486 268.368 6.03458C269.492 6.7243 270.359 7.70401 270.967 8.97372C271.574 10.2434 271.878 11.7404 271.878 13.4647C271.878 15.2047 271.574 16.7174 270.967 18.0028C270.359 19.2725 269.492 20.26 268.368 20.9654C267.258 21.6551 265.936 22 264.401 22C262.851 22 261.521 21.6551 260.412 20.9654C259.303 20.26 258.444 19.2725 257.836 18.0028C257.243 16.7174 256.947 15.2125 256.947 13.4882ZM259.181 13.4882C259.181 15.5574 259.622 17.172 260.503 18.332C261.385 19.4919 262.684 20.0719 264.401 20.0719C266.058 20.0719 267.342 19.4998 268.254 18.3555C269.181 17.1955 269.644 15.5731 269.644 13.4882C269.644 11.4034 269.188 9.78884 268.277 8.64454C267.365 7.50023 266.073 6.92808 264.401 6.92808C262.684 6.92808 261.385 7.50023 260.503 8.64454C259.622 9.78884 259.181 11.4034 259.181 13.4882Z" fill="#FEFEFE"/>
<path d="M280.399 21.7884L273.355 5.21162H275.657L281.789 19.9779H281.014L287.169 5.21162H289.38L282.291 21.7884H280.399Z" fill="#FEFEFE"/>
<path d="M296.844 22C295.552 22 294.39 21.8276 293.356 21.4827C292.323 21.1379 291.426 20.6519 290.666 20.0249L291.396 18.2849C291.928 18.6925 292.467 19.0373 293.014 19.3195C293.561 19.586 294.146 19.7898 294.77 19.9308C295.408 20.0562 296.099 20.1189 296.844 20.1189C298.166 20.1189 299.139 19.876 299.762 19.39C300.4 18.8884 300.719 18.2301 300.719 17.4149C300.719 16.7095 300.499 16.1687 300.058 15.7925C299.618 15.4163 298.85 15.1185 297.756 14.899L295.317 14.3817C293.843 14.0682 292.741 13.5588 292.011 12.8534C291.297 12.1323 290.94 11.1604 290.94 9.93776C290.94 8.95021 291.191 8.08806 291.692 7.35131C292.209 6.59889 292.916 6.0189 293.812 5.61134C294.724 5.20378 295.788 5 297.004 5C298.128 5 299.169 5.17243 300.127 5.51729C301.084 5.86215 301.89 6.3716 302.543 7.04564L301.814 8.71508C301.13 8.07238 300.393 7.60996 299.602 7.3278C298.827 7.02997 297.946 6.88105 296.958 6.88105C295.757 6.88105 294.808 7.14753 294.108 7.6805C293.409 8.21346 293.06 8.93453 293.06 9.84371C293.06 10.5648 293.28 11.1369 293.721 11.5602C294.162 11.9677 294.891 12.2812 295.909 12.5007L298.349 12.9945C299.899 13.308 301.031 13.8018 301.745 14.4758C302.475 15.1498 302.839 16.0825 302.839 17.2739C302.839 18.2144 302.596 19.0452 302.11 19.7663C301.624 20.4716 300.932 21.0203 300.035 21.4122C299.139 21.8041 298.075 22 296.844 22Z" fill="#FEFEFE"/>
<path d="M306.303 21.7884V5.21162H308.423V12.7123H308.468L316.014 5.21162H318.681L309.927 13.7939L309.95 12.7358L319.297 21.7884H316.538L308.468 14.0055H308.423V21.7884H306.303Z" fill="#FEFEFE"/>
<path d="M319.098 21.7884L326.21 5.21162H328.057L335.283 21.7884H333.095L331.111 17.0858L332.023 17.6501H322.244L323.247 17.0858L321.264 21.7884H319.098ZM327.099 7.65699L323.543 16.3568L322.996 15.8631H331.271L330.838 16.3568L327.19 7.65699H327.099Z" fill="#FEFEFE"/>
<path d="M340.477 21.7884V14.029L340.933 15.4633L334.231 5.21162H336.693L341.845 13.3001H341.321L346.473 5.21162H348.866L342.164 15.4633L342.597 14.029V21.7884H340.477Z" fill="#FEFEFE"/>
<path d="M347.815 21.7884L354.927 5.21162H356.774L364 21.7884H361.812L359.828 17.0858L360.74 17.6501H350.961L351.964 17.0858L349.98 21.7884H347.815ZM355.816 7.65699L352.26 16.3568L351.713 15.8631H359.988L359.555 16.3568L355.907 7.65699H355.816Z" fill="#FEFEFE"/>
</svg>
