<svg width="441" height="30" viewBox="0 0 441 30" fill="none" xmlns="http://www.w3.org/2000/svg">
<path d="M0 0.206897C0 0.0926308 0.0923413 0 0.20625 0H3.81562C3.81562 0 7.32188 0.537931 7.28062 3.81724C7.23938 7.09655 7.28062 13.2 7.28062 13.2C7.28062 13.2 6.90938 18.6207 13.2928 19.169H14.3138V3.0931C14.3138 3.0931 14.1797 1.11724 12.8906 1.07586C11.6016 1.03448 10.2816 1.2 10.2403 0H16.5V30H9.26062C9.26062 30 8.68313 28.9034 12.5916 28.7793C13.6125 28.7483 14.3241 28.8517 14.19 20.8655C14.19 20.8655 3.40565 20.33 3.40565 13.9162V3.41617C3.40565 3.41617 3.48563 0.951724 1.74281 0.982759L0.419822 1.00632C0.189176 1.01042 0 0.823994 0 0.592589V0.206897Z" fill="#FEFEFE"/>
<path d="M33 0.206897C33 0.0926308 32.9077 0 32.7938 0H29.1844C29.1844 0 25.6781 0.537931 25.7194 3.81724C25.7606 7.09655 25.7194 13.2 25.7194 13.2C25.7194 13.2 26.0906 18.6207 19.7072 19.169H18.6862V3.0931C18.6862 3.0931 18.8203 1.11724 20.1094 1.07586C21.3984 1.03448 22.7184 1.2 22.7597 0H16.5V30H23.7394C23.7394 30 24.3169 28.9034 20.4084 28.7793C19.3875 28.7483 18.6759 28.8517 18.81 20.8655C18.81 20.8655 29.5943 20.33 29.5943 13.9162V3.41617C29.5943 3.41617 29.5144 0.951724 31.2572 0.982759L32.5802 1.00632C32.8108 1.01042 33 0.823994 33 0.592589V0.206897Z" fill="#FEFEFE"/>
<path d="M57.652 24.8699L49 5.12993H51.828L59.36 22.7139H58.408L65.968 5.12993H68.684L59.976 24.8699H57.652Z" fill="#FEFEFE"/>
<path d="M68.0809 24.8699L76.8169 5.12993H79.0849L87.9609 24.8699H85.2729L82.8369 19.2699L83.9569 19.9419H71.9449L73.1769 19.2699L70.7409 24.8699H68.0809ZM77.9089 8.04193L73.5409 18.4019L72.8689 17.8139H83.0329L82.5009 18.4019L78.0209 8.04193H77.9089Z" fill="#FEFEFE"/>
<path d="M91.3288 24.8699V5.12993H93.9328V22.6299H103.761V24.8699H91.3288Z" fill="#FEFEFE"/>
<path d="M107.256 24.8699V5.12993H120.024V7.25793H109.776V13.7819H119.38V15.9099H109.776V22.7419H120.024V24.8699H107.256Z" fill="#FEFEFE"/>
<path d="M124.332 24.8699V5.12993H132.508C134.617 5.12993 136.241 5.6246 137.38 6.61393C138.537 7.60326 139.116 8.9846 139.116 10.7579C139.116 11.9339 138.854 12.9326 138.332 13.7539C137.809 14.5753 137.072 15.2006 136.12 15.6299C135.186 16.0593 134.094 16.2739 132.844 16.2739L133.32 15.8819H133.992C134.757 15.8819 135.438 16.0779 136.036 16.4699C136.633 16.8433 137.128 17.4593 137.52 18.3179L140.32 24.8699H137.436L134.72 18.3739C134.402 17.5713 133.936 17.0486 133.32 16.8059C132.722 16.5633 131.966 16.4419 131.052 16.4419H126.936V24.8699H124.332ZM126.936 14.4259H132.116C133.553 14.4259 134.645 14.1179 135.392 13.5019C136.157 12.8859 136.54 11.9899 136.54 10.8139C136.54 9.6566 136.157 8.77926 135.392 8.18193C134.645 7.56593 133.553 7.25793 132.116 7.25793H126.936V14.4259Z" fill="#FEFEFE"/>
<path d="M144.36 24.8699V5.12993H146.964V24.8699H144.36Z" fill="#FEFEFE"/>
<path d="M150.287 24.8699L159.023 5.12993H161.291L170.167 24.8699H167.479L165.043 19.2699L166.163 19.9419H154.151L155.383 19.2699L152.947 24.8699H150.287ZM160.115 8.04193L155.747 18.4019L155.075 17.8139H165.239L164.707 18.4019L160.227 8.04193H160.115Z" fill="#FEFEFE"/>
<path d="M181.478 24.8699V5.12993H184.082V14.0619H184.138L193.406 5.12993H196.682L185.93 15.3499L185.958 14.0899L197.438 24.8699H194.05L184.138 15.6019H184.082V24.8699H181.478Z" fill="#FEFEFE"/>
<path d="M199.975 24.8699V5.12993H208.151C210.261 5.12993 211.885 5.6246 213.023 6.61393C214.181 7.60326 214.759 8.9846 214.759 10.7579C214.759 11.9339 214.498 12.9326 213.975 13.7539C213.453 14.5753 212.715 15.2006 211.763 15.6299C210.83 16.0593 209.738 16.2739 208.487 16.2739L208.963 15.8819H209.635C210.401 15.8819 211.082 16.0779 211.679 16.4699C212.277 16.8433 212.771 17.4593 213.163 18.3179L215.963 24.8699H213.079L210.363 18.3739C210.046 17.5713 209.579 17.0486 208.963 16.8059C208.366 16.5633 207.61 16.4419 206.695 16.4419H202.579V24.8699H199.975ZM202.579 14.4259H207.759C209.197 14.4259 210.289 14.1179 211.035 13.5019C211.801 12.8859 212.183 11.9899 212.183 10.8139C212.183 9.6566 211.801 8.77926 211.035 8.18193C210.289 7.56593 209.197 7.25793 207.759 7.25793H202.579V14.4259Z" fill="#FEFEFE"/>
<path d="M220.004 24.8699V5.12993H222.608V24.8699H220.004Z" fill="#FEFEFE"/>
<path d="M226.771 24.8699V22.9379L238.503 6.41793V7.34193H226.771V5.12993H240.995V7.03393L229.235 23.5819V22.6579H241.331V24.8699H226.771Z" fill="#FEFEFE"/>
<path d="M245.269 24.8699V5.12993H247.873V13.7539H259.353V5.12993H261.985V24.8699H259.353V15.9659H247.873V24.8699H245.269Z" fill="#FEFEFE"/>
<path d="M265.305 24.8699L274.041 5.12993H276.309L285.185 24.8699H282.497L280.061 19.2699L281.181 19.9419H269.169L270.401 19.2699L267.965 24.8699H265.305ZM275.133 8.04193L270.765 18.4019L270.093 17.8139H280.257L279.725 18.4019L275.245 8.04193H275.133Z" fill="#FEFEFE"/>
<path d="M288.553 24.8699V5.12993H290.569L302.945 21.4819H302.273V5.12993H304.709V24.8699H302.721L290.345 8.51793H290.989V24.8699H288.553Z" fill="#FEFEFE"/>
<path d="M309.33 14.9859C309.33 12.9139 309.694 11.1219 310.422 9.60993C311.15 8.09793 312.195 6.93126 313.558 6.10993C314.939 5.2886 316.582 4.87793 318.486 4.87793C320.371 4.87793 321.995 5.2886 323.358 6.10993C324.739 6.93126 325.803 8.09793 326.55 9.60993C327.297 11.1219 327.67 12.9046 327.67 14.9579C327.67 17.0299 327.297 18.8313 326.55 20.3619C325.803 21.8739 324.739 23.0499 323.358 23.8899C321.995 24.7113 320.371 25.1219 318.486 25.1219C316.582 25.1219 314.949 24.7113 313.586 23.8899C312.223 23.0499 311.169 21.8739 310.422 20.3619C309.694 18.8313 309.33 17.0393 309.33 14.9859ZM312.074 14.9859C312.074 17.4499 312.615 19.3726 313.698 20.7539C314.781 22.1353 316.377 22.8259 318.486 22.8259C320.521 22.8259 322.098 22.1446 323.218 20.7819C324.357 19.4006 324.926 17.4686 324.926 14.9859C324.926 12.5033 324.366 10.5806 323.246 9.21793C322.126 7.85526 320.539 7.17393 318.486 7.17393C316.377 7.17393 314.781 7.85526 313.698 9.21793C312.615 10.5806 312.074 12.5033 312.074 14.9859Z" fill="#FEFEFE"/>
<path d="M338.135 24.8699L329.483 5.12993H332.311L339.843 22.7139H338.891L346.451 5.12993H349.167L340.459 24.8699H338.135Z" fill="#FEFEFE"/>
<path d="M358.335 25.1219C356.748 25.1219 355.32 24.9166 354.051 24.5059C352.781 24.0953 351.68 23.5166 350.747 22.7699L351.643 20.6979C352.296 21.1833 352.959 21.5939 353.631 21.9299C354.303 22.2473 355.021 22.4899 355.787 22.6579C356.571 22.8073 357.42 22.8819 358.335 22.8819C359.959 22.8819 361.153 22.5926 361.919 22.0139C362.703 21.4166 363.095 20.6326 363.095 19.6619C363.095 18.8219 362.824 18.1779 362.283 17.7299C361.741 17.2819 360.799 16.9273 359.455 16.6659L356.459 16.0499C354.648 15.6766 353.295 15.0699 352.399 14.2299C351.521 13.3713 351.083 12.2139 351.083 10.7579C351.083 9.58193 351.391 8.55526 352.007 7.67793C352.641 6.78193 353.509 6.09126 354.611 5.60593C355.731 5.1206 357.037 4.87793 358.531 4.87793C359.912 4.87793 361.191 5.08326 362.367 5.49393C363.543 5.9046 364.532 6.51126 365.335 7.31393L364.439 9.30193C363.599 8.5366 362.693 7.98593 361.723 7.64993C360.771 7.29526 359.688 7.11793 358.475 7.11793C357 7.11793 355.833 7.43526 354.975 8.06993C354.116 8.7046 353.687 9.56326 353.687 10.6459C353.687 11.5046 353.957 12.1859 354.499 12.6899C355.04 13.1753 355.936 13.5486 357.187 13.8099L360.183 14.3979C362.087 14.7713 363.477 15.3593 364.355 16.1619C365.251 16.9646 365.699 18.0753 365.699 19.4939C365.699 20.6139 365.4 21.6033 364.803 22.4619C364.205 23.3019 363.356 23.9553 362.255 24.4219C361.153 24.8886 359.847 25.1219 358.335 25.1219Z" fill="#FEFEFE"/>
<path d="M369.953 24.8699V5.12993H372.557V14.0619H372.613L381.881 5.12993H385.157L374.405 15.3499L374.433 14.0899L385.913 24.8699H382.525L372.613 15.6019H372.557V24.8699H369.953Z" fill="#FEFEFE"/>
<path d="M385.669 24.8699L394.405 5.12993H396.673L405.549 24.8699H402.861L400.425 19.2699L401.545 19.9419H389.533L390.765 19.2699L388.329 24.8699H385.669ZM395.497 8.04193L391.129 18.4019L390.457 17.8139H400.621L400.089 18.4019L395.609 8.04193H395.497Z" fill="#FEFEFE"/>
<path d="M411.929 24.8699V15.6299L412.489 17.3379L404.257 5.12993H407.281L413.609 14.7619H412.965L419.293 5.12993H422.233L414.001 17.3379L414.533 15.6299V24.8699H411.929Z" fill="#FEFEFE"/>
<path d="M420.941 24.8699L429.677 5.12993H431.945L440.821 24.8699H438.133L435.697 19.2699L436.817 19.9419H424.805L426.037 19.2699L423.601 24.8699H420.941ZM430.769 8.04193L426.401 18.4019L425.729 17.8139H435.893L435.361 18.4019L430.881 8.04193H430.769Z" fill="#FEFEFE"/>
</svg>
