<svg width="234" height="40" viewBox="0 0 234 40" fill="none" xmlns="http://www.w3.org/2000/svg">
<path d="M0 5.2069C0 5.09263 0.0923413 5 0.20625 5H3.81562C3.81562 5 7.32188 5.53793 7.28062 8.81724C7.23938 12.0966 7.28062 18.2 7.28062 18.2C7.28062 18.2 6.90938 23.6207 13.2928 24.169H14.3138V8.0931C14.3138 8.0931 14.1797 6.11724 12.8906 6.07586C11.6016 6.03448 10.2816 6.2 10.2403 5H16.5V35H9.26062C9.26062 35 8.68313 33.9034 12.5916 33.7793C13.6125 33.7483 14.3241 33.8517 14.19 25.8655C14.19 25.8655 3.40565 25.33 3.40565 18.9162V8.41617C3.40565 8.41617 3.48563 5.95172 1.74281 5.98276L0.419822 6.00632C0.189176 6.01042 0 5.82399 0 5.59259V5.2069Z" fill="#FEFEFE"/>
<path d="M33 5.2069C33 5.09263 32.9077 5 32.7938 5H29.1844C29.1844 5 25.6781 5.53793 25.7194 8.81724C25.7606 12.0966 25.7194 18.2 25.7194 18.2C25.7194 18.2 26.0906 23.6207 19.7072 24.169H18.6862V8.0931C18.6862 8.0931 18.8203 6.11724 20.1094 6.07586C21.3984 6.03448 22.7184 6.2 22.7597 5H16.5V35H23.7394C23.7394 35 24.3169 33.9034 20.4084 33.7793C19.3875 33.7483 18.6759 33.8517 18.81 25.8655C18.81 25.8655 29.5943 25.33 29.5943 18.9162V8.41617C29.5943 8.41617 29.5144 5.95172 31.2572 5.98276L32.5802 6.00632C32.8108 6.01042 33 5.82399 33 5.59259V5.2069Z" fill="#FEFEFE"/>
<path d="M51.2837 14L45 0H47.0539L52.5242 12.4709H51.8327L57.3233 0H59.2959L52.9715 14H51.2837Z" fill="#FEFEFE"/>
<path d="M58.8579 14L65.2026 0H66.8497L73.2961 14H71.3439L69.5747 10.0284L70.3881 10.505H61.6642L62.5589 10.0284L60.7898 14H58.8579ZM65.9957 2.06525L62.8233 9.41277L62.3353 8.99575H69.7171L69.3307 9.41277L66.077 2.06525H65.9957Z" fill="#FEFEFE"/>
<path d="M75.7421 14V0H77.6333V12.4113H84.7711V14H75.7421Z" fill="#FEFEFE"/>
<path d="M87.3095 14V0H96.5825V1.50922H89.1397V6.13617H96.1148V7.64539H89.1397V12.4908H96.5825V14H87.3095Z" fill="#FEFEFE"/>
<path d="M99.711 14V0H105.649C107.181 0 108.36 0.350828 109.187 1.05248C110.028 1.75414 110.448 2.73381 110.448 3.99149C110.448 4.82553 110.258 5.53381 109.879 6.11631C109.499 6.69882 108.964 7.14232 108.272 7.44681C107.594 7.7513 106.801 7.90355 105.893 7.90355L106.239 7.62553H106.727C107.283 7.62553 107.777 7.76454 108.211 8.04255C108.645 8.30733 109.004 8.74421 109.289 9.35319L111.323 14H109.228L107.256 9.39291C107.025 8.82364 106.686 8.45296 106.239 8.28085C105.805 8.10875 105.256 8.0227 104.592 8.0227H101.602V14H99.711ZM101.602 6.59291H105.364C106.408 6.59291 107.201 6.37447 107.744 5.93759C108.299 5.50071 108.577 4.86525 108.577 4.03121C108.577 3.2104 108.299 2.58818 107.744 2.16454C107.201 1.72766 106.408 1.50922 105.364 1.50922H101.602V6.59291Z" fill="#FEFEFE"/>
<path d="M114.257 14V0H116.149V14H114.257Z" fill="#FEFEFE"/>
<path d="M118.562 14L124.906 0H126.554L133 14H131.048L129.279 10.0284L130.092 10.505H121.368L122.263 10.0284L120.494 14H118.562ZM125.7 2.06525L122.527 9.41277L122.039 8.99575H129.421L129.035 9.41277L125.781 2.06525H125.7Z" fill="#FEFEFE"/>
<path d="M45 39.8257V26.1743H46.8977V32.3513H46.9385L53.6927 26.1743H56.0801L48.2445 33.242L48.2649 32.3707L56.6311 39.8257H54.162L46.9385 33.4163H46.8977V39.8257H45Z" fill="#FEFEFE"/>
<path d="M58.4803 39.8257V26.1743H64.4387C65.9759 26.1743 67.1594 26.5164 67.9892 27.2006C68.8326 27.8847 69.2544 28.84 69.2544 30.0664C69.2544 30.8797 69.0639 31.5703 68.683 32.1383C68.3021 32.7063 67.7648 33.1388 67.071 33.4357C66.3908 33.7326 65.595 33.8811 64.6835 33.8811L65.0304 33.61H65.5202C66.0779 33.61 66.5744 33.7455 67.0098 34.0166C67.4451 34.2748 67.8056 34.7008 68.0913 35.2946L70.1318 39.8257H68.03L66.0507 35.3333C65.8194 34.7782 65.4794 34.4168 65.0304 34.249C64.5951 34.0811 64.0442 33.9972 63.3776 33.9972H60.378V39.8257H58.4803ZM60.378 32.603H64.153C65.2005 32.603 65.9963 32.39 66.5404 31.964C67.0982 31.538 67.3771 30.9184 67.3771 30.1051C67.3771 29.3047 67.0982 28.698 66.5404 28.2849C65.9963 27.8589 65.2005 27.6459 64.153 27.6459H60.378V32.603Z" fill="#FEFEFE"/>
<path d="M73.0765 39.8257V26.1743H74.9742V39.8257H73.0765Z" fill="#FEFEFE"/>
<path d="M78.0079 39.8257V38.4896L86.5578 27.065V27.704H78.0079V26.1743H88.3739V27.491L79.8036 38.935V38.296H88.6188V39.8257H78.0079Z" fill="#FEFEFE"/>
<path d="M91.4884 39.8257V26.1743H93.3861V32.1383H101.752V26.1743H103.67V39.8257H101.752V33.6681H93.3861V39.8257H91.4884Z" fill="#FEFEFE"/>
<path d="M106.09 39.8257L112.457 26.1743H114.109L120.578 39.8257H118.619L116.844 35.953L117.66 36.4177H108.906L109.804 35.953L108.029 39.8257H106.09ZM113.252 28.1881L110.069 35.3527L109.579 34.9461H116.987L116.599 35.3527L113.334 28.1881H113.252Z" fill="#FEFEFE"/>
<path d="M123.032 39.8257V26.1743H124.501L133.521 37.4827H133.031V26.1743H134.806V39.8257H133.357L124.338 28.5173H124.808V39.8257H123.032Z" fill="#FEFEFE"/>
<path d="M138.174 32.9903C138.174 31.5574 138.439 30.3181 138.97 29.2725C139.5 28.2268 140.262 27.42 141.255 26.852C142.262 26.284 143.459 26 144.847 26C146.221 26 147.404 26.284 148.397 26.852C149.404 27.42 150.179 28.2268 150.723 29.2725C151.267 30.3181 151.54 31.5509 151.54 32.971C151.54 34.4039 151.267 35.6496 150.723 36.7082C150.179 37.7538 149.404 38.5671 148.397 39.148C147.404 39.716 146.221 40 144.847 40C143.459 40 142.269 39.716 141.276 39.148C140.283 38.5671 139.514 37.7538 138.97 36.7082C138.439 35.6496 138.174 34.4103 138.174 32.9903ZM140.174 32.9903C140.174 34.6943 140.568 36.024 141.357 36.9793C142.146 37.9345 143.309 38.4122 144.847 38.4122C146.329 38.4122 147.479 37.941 148.295 36.9986C149.125 36.0433 149.54 34.7072 149.54 32.9903C149.54 31.2734 149.132 29.9438 148.316 29.0014C147.499 28.059 146.343 27.5878 144.847 27.5878C143.309 27.5878 142.146 28.059 141.357 29.0014C140.568 29.9438 140.174 31.2734 140.174 32.9903Z" fill="#FEFEFE"/>
<path d="M159.166 39.8257L152.861 26.1743H154.922L160.411 38.3347H159.717L165.227 26.1743H167.206L160.86 39.8257H159.166Z" fill="#FEFEFE"/>
<path d="M173.887 40C172.731 40 171.69 39.858 170.765 39.574C169.84 39.29 169.037 38.8898 168.357 38.3734L169.01 36.9405C169.486 37.2762 169.969 37.5602 170.459 37.7925C170.949 38.012 171.472 38.1798 172.03 38.296C172.601 38.3993 173.22 38.4509 173.887 38.4509C175.07 38.4509 175.941 38.2508 176.499 37.8506C177.07 37.4375 177.356 36.8953 177.356 36.2241C177.356 35.6432 177.159 35.1978 176.764 34.888C176.37 34.5781 175.683 34.3329 174.703 34.1521L172.52 33.7261C171.2 33.468 170.214 33.0484 169.561 32.4675C168.922 31.8737 168.602 31.0733 168.602 30.0664C168.602 29.2531 168.826 28.5431 169.275 27.9364C169.738 27.3167 170.37 26.8391 171.173 26.5035C171.989 26.1678 172.942 26 174.03 26C175.036 26 175.968 26.142 176.825 26.426C177.682 26.71 178.403 27.1296 178.988 27.6846L178.335 29.0595C177.723 28.5302 177.063 28.1494 176.356 27.917C175.662 27.6717 174.873 27.5491 173.989 27.5491C172.914 27.5491 172.064 27.7686 171.438 28.2075C170.813 28.6464 170.5 29.2402 170.5 29.9889C170.5 30.5828 170.697 31.0539 171.091 31.4025C171.486 31.7381 172.139 31.9963 173.05 32.177L175.234 32.5837C176.621 32.8419 177.635 33.2485 178.274 33.8036C178.927 34.3587 179.254 35.1268 179.254 36.1079C179.254 36.8824 179.036 37.5666 178.601 38.1604C178.165 38.7414 177.546 39.1932 176.744 39.5159C175.941 39.8386 174.989 40 173.887 40Z" fill="#FEFEFE"/>
<path d="M182.354 39.8257V26.1743H184.251V32.3513H184.292L191.046 26.1743H193.434L185.598 33.242L185.619 32.3707L193.985 39.8257H191.516L184.292 33.4163H184.251V39.8257H182.354Z" fill="#FEFEFE"/>
<path d="M193.807 39.8257L200.173 26.1743H201.826L208.295 39.8257H206.336L204.561 35.953L205.377 36.4177H196.623L197.521 35.953L195.745 39.8257H193.807ZM200.969 28.1881L197.786 35.3527L197.296 34.9461H204.703L204.316 35.3527L201.051 28.1881H200.969Z" fill="#FEFEFE"/>
<path d="M212.944 39.8257V33.4357L213.352 34.6169L207.353 26.1743H209.557L214.169 32.8354H213.699L218.311 26.1743H220.453L214.454 34.6169L214.842 33.4357V39.8257H212.944Z" fill="#FEFEFE"/>
<path d="M219.512 39.8257L225.879 26.1743H227.531L234 39.8257H232.041L230.266 35.953L231.082 36.4177H222.328L223.226 35.953L221.451 39.8257H219.512ZM226.674 28.1881L223.491 35.3527L223.001 34.9461H230.409L230.021 35.3527L226.756 28.1881H226.674Z" fill="#FEFEFE"/>
</svg>
