<svg width="96" height="96" viewBox="0 0 96 96" fill="none" xmlns="http://www.w3.org/2000/svg">
<rect width="96" height="96" rx="48" fill="#F0F9F8"/>
<path d="M48.0006 74C43.7574 74 39.5141 74 35.2708 74C32.975 74 31.8825 72.9348 31.8983 70.681C31.8983 69.3071 31.835 67.9178 32.0567 66.5748C32.4842 63.9041 34.0833 62.0208 36.6483 61.002C38.0574 60.4462 39.5299 60.014 40.9866 59.5663C41.1924 59.5046 41.5249 59.5663 41.7149 59.6898C45.8632 62.3604 50.2173 62.3604 54.3814 59.6898C54.5872 59.5509 54.9356 59.5046 55.1731 59.5817C56.5347 59.9985 57.8964 60.4153 59.2422 60.8939C62.1713 61.9436 64.1346 64.6606 64.1821 67.7171C64.198 68.844 64.198 69.9864 64.1821 71.1133C64.1663 72.8268 62.9471 74 61.1738 74C56.788 74 52.3864 74 48.0006 74Z" fill="url(#paint0_linear_9712_9145)"/>
<path d="M48.0481 42.4929C52.8931 42.462 56.883 46.3058 56.9305 51.0296C56.9622 55.8305 53.0198 59.7361 48.0956 59.767C43.2349 59.7979 39.2291 55.9695 39.2133 51.2611C39.1974 46.3367 43.0449 42.5237 48.064 42.4929H48.0481Z" fill="url(#paint1_linear_9712_9145)"/>
<path d="M35.5716 33.9253V34.8052C35.5716 38.2477 35.5716 41.6901 35.5716 45.1172C35.5716 46.275 35.2866 46.5683 34.0991 46.5683C32.9117 46.5683 31.7242 46.5683 30.5525 46.5683C29.5392 46.5683 29.2225 46.2595 29.2225 45.287C29.2225 41.7982 29.2225 38.3094 29.2225 34.8206C29.2225 34.5582 29.2225 34.2958 29.2225 33.987C28.7475 33.9561 28.3359 33.9561 27.9401 33.8944C27.0376 33.7555 26.6892 32.9527 27.3226 32.3198C28.7634 30.8687 30.2359 29.4485 31.7083 28.0283C32.1358 27.6115 32.6742 27.6269 33.1017 28.0283C34.5583 29.4176 36.0308 30.8224 37.4399 32.2735C37.6616 32.5051 37.7724 33.0299 37.6458 33.3078C37.5349 33.5856 37.0916 33.7863 36.7433 33.8944C36.4266 33.987 36.0625 33.9098 35.6033 33.9098L35.5716 33.9253Z" fill="url(#paint2_linear_9712_9145)"/>
<path d="M66.8737 33.9716C66.8737 34.2649 66.8737 34.5273 66.8737 34.7897C66.8737 38.2322 66.8737 41.6747 66.8737 45.1017C66.8737 46.3213 66.6204 46.5528 65.3538 46.5528C64.1663 46.5528 62.9788 46.5528 61.8071 46.5528C60.873 46.5528 60.5247 46.2132 60.5247 45.2715C60.5247 41.7828 60.5247 38.294 60.5247 34.8052C60.5247 34.5427 60.5247 34.2803 60.5247 33.9098C60.113 33.9098 59.733 33.987 59.4005 33.8944C59.0522 33.8018 58.5772 33.6011 58.4822 33.3232C58.3714 33.0145 58.4822 32.4742 58.7038 32.2272C60.0972 30.7915 61.538 29.4176 62.9788 28.0283C63.438 27.596 63.9605 27.596 64.4196 28.0283C65.8604 29.4176 67.3012 30.7915 68.6946 32.2272C68.9162 32.4587 69.0746 32.9682 68.9637 33.246C68.8687 33.5239 68.4254 33.7555 68.0929 33.8635C67.7287 33.987 67.3171 33.9253 66.8579 33.9561L66.8737 33.9716Z" fill="url(#paint3_linear_9712_9145)"/>
<path d="M51.2148 28.1981C51.2148 28.5531 51.2148 28.831 51.2148 29.1243C51.2148 32.5359 51.2148 35.9475 51.2148 39.3746C51.2148 40.5941 50.9931 40.8257 49.7581 40.8257C48.6023 40.8257 47.4465 40.8257 46.2748 40.8257C45.1032 40.8257 44.8657 40.5941 44.8657 39.4054C44.8657 35.9938 44.8657 32.5822 44.8657 29.1552C44.8657 28.8773 44.8657 28.584 44.8657 28.1827C44.4224 28.1827 44.0107 28.2598 43.6624 28.1672C43.3299 28.0746 42.8865 27.843 42.7757 27.5652C42.6649 27.2873 42.8074 26.7779 43.029 26.5463C44.4224 25.1107 45.8632 23.7368 47.304 22.3474C47.7948 21.8689 48.3173 21.8998 48.8081 22.3474C50.2331 23.7213 51.6581 25.0798 53.0356 26.5C53.2731 26.747 53.4156 27.3027 53.2889 27.5806C53.1623 27.8739 52.6873 28.0592 52.3231 28.1827C52.0223 28.2753 51.6581 28.1981 51.2306 28.1981H51.2148Z" fill="url(#paint4_linear_9712_9145)"/>
<defs>
<linearGradient id="paint0_linear_9712_9145" x1="27" y1="44.2193" x2="69.0137" y2="43.8591" gradientUnits="userSpaceOnUse">
<stop stop-color="#268B63"/>
<stop offset="0.955" stop-color="#62BF99"/>
</linearGradient>
<linearGradient id="paint1_linear_9712_9145" x1="27" y1="44.2193" x2="69.0137" y2="43.8591" gradientUnits="userSpaceOnUse">
<stop stop-color="#268B63"/>
<stop offset="0.955" stop-color="#62BF99"/>
</linearGradient>
<linearGradient id="paint2_linear_9712_9145" x1="27" y1="44.2193" x2="69.0137" y2="43.8591" gradientUnits="userSpaceOnUse">
<stop stop-color="#268B63"/>
<stop offset="0.955" stop-color="#62BF99"/>
</linearGradient>
<linearGradient id="paint3_linear_9712_9145" x1="27" y1="44.2193" x2="69.0137" y2="43.8591" gradientUnits="userSpaceOnUse">
<stop stop-color="#268B63"/>
<stop offset="0.955" stop-color="#62BF99"/>
</linearGradient>
<linearGradient id="paint4_linear_9712_9145" x1="27" y1="44.2193" x2="69.0137" y2="43.8591" gradientUnits="userSpaceOnUse">
<stop stop-color="#268B63"/>
<stop offset="0.955" stop-color="#62BF99"/>
</linearGradient>
</defs>
</svg>
