<svg width="32" height="32" viewBox="0 0 32 32" fill="none" xmlns="http://www.w3.org/2000/svg">
<path d="M15.9999 25.8003C18.711 23.3114 20.7221 21.0503 22.0333 19.017C23.3444 16.9837 23.9999 15.1781 23.9999 13.6003C23.9999 11.1781 23.2277 9.19477 21.6833 7.65033C20.1388 6.10588 18.2444 5.33366 15.9999 5.33366C13.7555 5.33366 11.861 6.10588 10.3166 7.65033C8.77214 9.19477 7.99992 11.1781 7.99992 13.6003C7.99992 15.1781 8.65547 16.9837 9.96659 19.017C11.2777 21.0503 13.2888 23.3114 15.9999 25.8003ZM15.9999 28.4337C15.6888 28.4337 15.3777 28.3781 15.0666 28.267C14.7555 28.1559 14.4777 27.9892 14.2333 27.767C12.7888 26.4337 11.511 25.1337 10.3999 23.867C9.28881 22.6003 8.36103 21.3725 7.61659 20.1837C6.87214 18.9948 6.30547 17.8503 5.91659 16.7503C5.5277 15.6503 5.33325 14.6003 5.33325 13.6003C5.33325 10.267 6.40547 7.61144 8.54992 5.63366C10.6944 3.65588 13.1777 2.66699 15.9999 2.66699C18.8221 2.66699 21.3055 3.65588 23.4499 5.63366C25.5944 7.61144 26.6666 10.267 26.6666 13.6003C26.6666 14.6003 26.4721 15.6503 26.0833 16.7503C25.6944 17.8503 25.1277 18.9948 24.3833 20.1837C23.6388 21.3725 22.711 22.6003 21.5999 23.867C20.4888 25.1337 19.211 26.4337 17.7666 27.767C17.5221 27.9892 17.2444 28.1559 16.9333 28.267C16.6221 28.3781 16.311 28.4337 15.9999 28.4337ZM15.9999 16.0003C16.7333 16.0003 17.361 15.7392 17.8833 15.217C18.4055 14.6948 18.6666 14.067 18.6666 13.3337C18.6666 12.6003 18.4055 11.9725 17.8833 11.4503C17.361 10.9281 16.7333 10.667 15.9999 10.667C15.2666 10.667 14.6388 10.9281 14.1166 11.4503C13.5944 11.9725 13.3333 12.6003 13.3333 13.3337C13.3333 14.067 13.5944 14.6948 14.1166 15.217C14.6388 15.7392 15.2666 16.0003 15.9999 16.0003Z" fill="#FEFEFE"/>
</svg>
