<svg width="96" height="96" viewBox="0 0 96 96" fill="none" xmlns="http://www.w3.org/2000/svg">
<rect width="96" height="96" rx="48" fill="#F0F9F8"/>
<g clip-path="url(#clip0_9712_9163)">
<path d="M45.01 73.9997C44.5861 73.8481 44.1474 73.7316 43.7425 73.5393C41.8087 72.6212 40.804 70.5452 41.2549 68.4463C41.6909 66.4191 43.5136 64.9146 45.618 64.8835C47.1712 64.8604 48.7258 64.8591 50.2791 64.8835C52.7396 64.9227 54.6923 66.8836 54.7478 69.3455C54.76 69.8641 54.7492 70.3841 54.7492 70.9583C55.4899 70.9583 56.1765 70.9583 56.8644 70.9583C57.9111 70.9583 58.9593 70.9732 60.006 70.9461C60.2281 70.9407 60.4976 70.831 60.6574 70.678C61.5471 69.8248 62.4219 68.9554 63.2709 68.0617C63.4429 67.8802 63.5689 67.5715 63.5702 67.321C63.5878 62.8278 63.5837 58.3361 63.5837 53.8429V53.2322C63.7544 53.2133 63.8681 53.1889 63.9819 53.1889C66.0429 53.1875 68.1026 53.1645 70.1636 53.1957C72.356 53.2295 73.8944 54.8193 73.8998 57.0171C73.9079 60.0071 73.8307 62.9985 73.9282 65.9844C73.9878 67.7949 72.4346 69.3184 70.9937 69.5296C70.1975 69.6461 69.3796 69.6203 68.5711 69.638C67.7275 69.6569 66.7891 69.4226 66.0659 69.7206C65.3428 70.0185 64.8282 70.831 64.2351 71.4322C63.3969 72.2813 62.5695 73.1439 61.738 74.0011H45.0127L45.01 73.9997Z" fill="url(#paint0_linear_9712_9163)"/>
<path d="M22 56.2615C22.0515 56.1234 22.1097 55.9879 22.153 55.8471C22.6283 54.3047 23.9405 53.2376 25.552 53.2092C27.7769 53.1686 30.0031 53.1997 32.2727 53.1997V69.6434C32.0533 69.6434 31.8394 69.6434 31.6254 69.6434C29.7865 69.6434 27.9475 69.6434 26.1085 69.6434C23.908 69.6434 22.6649 68.7036 22.0555 66.5843C22.0474 66.5532 22.019 66.5288 22 66.5017C22 63.0892 22 59.6767 22 56.2642V56.2615Z" fill="url(#paint1_linear_9712_9163)"/>
<path d="M47.9472 59.3354C40.0443 59.3327 33.6418 52.9235 33.6499 45.0219C33.658 37.1285 40.0917 30.7084 47.977 30.726C55.8501 30.7436 62.2472 37.1542 62.2499 45.026C62.2526 52.9329 55.8501 59.3382 47.9485 59.3354H47.9472ZM49.5004 44.9149V38.075H51.7727V35.0904H44.1284V38.1062H46.4048V44.9434C46.0974 44.9434 45.8157 44.9434 45.5341 44.9434C44.2056 44.9393 43.7114 44.441 43.7114 43.1003C43.7114 42.3109 43.7114 41.5227 43.7114 40.7102H38.663V43.7273H40.6388C40.674 43.8831 40.7105 44.0117 40.7308 44.1417C41.0843 46.3585 42.7865 47.8778 45.0357 47.9726C45.4867 47.9916 45.9376 47.9753 46.4034 47.9753V52.6946H44.1311V55.6833H51.7754V52.6621H49.514V47.9808C50.9033 48.0092 52.2589 48.0458 53.4383 47.1981C54.6205 46.3476 55.238 45.1831 55.3924 43.7111H57.2327V40.7184H52.3239C52.3239 41.6703 52.3347 42.5817 52.3211 43.4917C52.309 44.2527 51.835 44.8391 51.1376 44.9054C50.6068 44.9556 50.0665 44.9149 49.5058 44.9149H49.5004Z" fill="url(#paint2_linear_9712_9163)"/>
<path d="M27.766 50.1325H24.7774C24.7774 50.1325 24.7422 50.1014 24.7422 50.0743C24.7462 46.5508 24.4605 43.0001 25.4504 39.5511C27.9556 30.8181 33.57 25.0953 42.364 22.8136C54.7668 19.5961 67.4377 27.2918 70.4792 39.7434C70.8841 41.4022 71.033 43.1383 71.1414 44.8486C71.2524 46.5968 71.1657 48.3572 71.1657 50.1339H68.1337C68.1337 49.8901 68.1365 49.6938 68.1337 49.4974C68.104 47.4892 68.2164 45.4661 68.0186 43.4741C67.3483 36.7249 64.0753 31.4965 58.2781 28.0176C46.2626 20.8094 30.8265 27.7454 28.1493 41.5133C27.8392 43.1058 27.8527 44.7673 27.7769 46.3991C27.7214 47.6124 27.766 48.8298 27.766 50.1312V50.1325Z" fill="url(#paint3_linear_9712_9163)"/>
</g>
<defs>
<linearGradient id="paint0_linear_9712_9163" x1="22" y1="44.2662" x2="73.9448" y2="43.7147" gradientUnits="userSpaceOnUse">
<stop stop-color="#268B63"/>
<stop offset="0.955" stop-color="#62BF99"/>
</linearGradient>
<linearGradient id="paint1_linear_9712_9163" x1="22" y1="44.2662" x2="73.9448" y2="43.7147" gradientUnits="userSpaceOnUse">
<stop stop-color="#268B63"/>
<stop offset="0.955" stop-color="#62BF99"/>
</linearGradient>
<linearGradient id="paint2_linear_9712_9163" x1="22" y1="44.2662" x2="73.9448" y2="43.7147" gradientUnits="userSpaceOnUse">
<stop stop-color="#268B63"/>
<stop offset="0.955" stop-color="#62BF99"/>
</linearGradient>
<linearGradient id="paint3_linear_9712_9163" x1="22" y1="44.2662" x2="73.9448" y2="43.7147" gradientUnits="userSpaceOnUse">
<stop stop-color="#268B63"/>
<stop offset="0.955" stop-color="#62BF99"/>
</linearGradient>
<clipPath id="clip0_9712_9163">
<rect width="52" height="52" fill="white" transform="translate(22 22)"/>
</clipPath>
</defs>
</svg>
