<svg width="96" height="96" viewBox="0 0 96 96" fill="none" xmlns="http://www.w3.org/2000/svg">
<rect width="96" height="96" rx="48" fill="#F0F9F8"/>
<path d="M61.9394 71.1658C60.1681 71.1658 58.3844 71.1658 56.6131 71.1658C55.486 71.1658 55.1144 70.7942 55.1391 69.667C55.2382 65.3564 55.7832 61.1201 57.2944 57.0573C57.5545 56.376 57.8766 55.7071 58.1739 55.0382C58.5331 54.1959 58.1739 53.6014 57.282 53.5766C54.9657 53.5023 53.021 52.5857 51.3859 50.9878C50.3826 49.9968 49.3669 49.0183 48.3884 48.015C48.0787 47.7053 47.8929 47.7177 47.5832 48.015C46.3569 49.2165 45.1926 50.4923 43.8796 51.6071C42.4303 52.8334 40.7334 53.4775 38.8506 53.5766C37.7234 53.6385 37.3642 54.1959 37.8596 55.2117C39.3337 58.234 40.0397 61.467 40.4608 64.7866C40.6714 66.4464 40.8324 68.1186 40.8201 69.8032C40.8201 70.7818 40.4485 71.1782 39.4575 71.1905C35.8282 71.1905 32.1989 71.1905 28.5696 71.1905C28.1237 71.1905 27.9131 71.0295 27.8264 70.596C27.1823 67.4621 26.9221 64.2911 27.0336 61.0954C27.0584 60.5627 27.1699 60.0301 27.2318 59.4851C27.3185 58.8038 27.0832 58.4198 26.5629 58.3331C25.9808 58.234 25.5968 58.4941 25.4853 59.1754C25.2375 60.637 25.1508 62.1235 25.2252 63.6099C25.3243 65.5174 25.4605 67.425 25.7578 69.3078C25.8321 69.7785 25.9188 70.2615 26.0179 70.7322C26.0798 71.0419 25.956 71.1658 25.6587 71.1658C25.1013 71.1658 24.5315 71.1782 23.9741 71.141C23.3795 71.1038 23.0451 70.7322 22.9088 70.1624C22.562 68.8123 22.3267 67.4498 22.178 66.0624C21.9179 63.5603 21.8931 61.0458 22.3762 58.5685C22.8097 56.376 23.5777 54.3322 25.2128 52.7219C26.5134 51.4213 28.0989 50.7277 29.895 50.5419C32.5086 50.2817 35.1469 50.418 37.7729 50.4552C39.7796 50.4799 41.4146 49.7863 42.8019 48.3742C43.9291 47.2346 45.1059 46.1446 46.2455 45.0174C46.6666 44.6086 47.1497 44.4476 47.7195 44.5467C47.7814 44.5467 47.8433 44.5838 47.8929 44.5714C49.1192 44.237 49.8252 45.0545 50.5808 45.7854C51.7328 46.8878 52.8104 48.0893 54.0367 49.1174C55.0648 49.9721 56.2539 50.418 57.6041 50.4304C60.0814 50.4304 62.5464 50.3932 65.0237 50.4428C67.563 50.4923 69.7926 51.3346 71.4277 53.4032C72.4805 54.7286 73.1123 56.2645 73.4715 57.8996C74.3757 62.0367 74.0537 66.1491 73.0875 70.2368C72.9389 70.8561 72.5549 71.1534 71.9355 71.1782C71.4153 71.2029 70.8951 71.1782 70.3748 71.1782C70.028 71.1782 69.8917 71.0419 69.966 70.6703C70.3377 68.9733 70.5358 67.2392 70.6473 65.505C70.7836 63.4612 70.8455 61.4174 70.5606 59.386C70.5606 59.3117 70.5234 59.2373 70.5111 59.163C70.35 58.4941 70.0032 58.2216 69.421 58.3207C68.9256 58.4074 68.6654 58.7914 68.7769 59.4231C69.0618 60.9715 69.0247 62.5446 68.9751 64.1053C68.9008 66.2235 68.6407 68.3292 68.2195 70.4226C68.108 70.9676 67.8851 71.1905 67.3029 71.1782C65.5316 71.141 63.7479 71.1658 61.9766 71.1658H61.9394Z" fill="url(#paint0_linear_9712_9103)"/>
<path d="M56.3406 29.5214C56.3406 31.4909 55.6222 32.8039 54.6189 33.9683C52.9095 35.9254 50.779 37.3003 48.4007 38.3036C48.1778 38.3903 47.9672 38.477 47.7319 38.3656C44.821 37.1269 42.195 35.5042 40.4608 32.7668C39.4204 31.1193 39.2346 29.348 40.2255 27.6015C41.2412 25.7806 42.901 24.926 44.9448 24.8269C45.8367 24.7897 46.7161 25.0251 47.4717 25.5329C47.8309 25.7683 48.0787 25.7559 48.4503 25.5329C50.234 24.48 52.0424 24.6287 53.789 25.632C55.424 26.561 56.2787 27.9979 56.3406 29.5214Z" fill="url(#paint1_linear_9712_9103)"/>
<path d="M59.3258 44.0146C59.3135 41.4753 61.4564 39.3077 64.008 39.2953C66.5349 39.2953 68.715 41.4506 68.715 43.9898C68.715 46.4796 66.5721 48.6473 64.0576 48.6844C61.5555 48.7216 59.3382 46.5415 59.3258 44.0146Z" fill="url(#paint2_linear_9712_9103)"/>
<path d="M36.6086 43.9899C36.6086 46.5044 34.4161 48.6969 31.9016 48.6721C29.3995 48.6473 27.2566 46.5168 27.2566 44.0394C27.2566 41.463 29.3623 39.3077 31.9016 39.2953C34.4285 39.2829 36.6086 41.4506 36.6086 43.9775V43.9899Z" fill="url(#paint3_linear_9712_9103)"/>
<defs>
<linearGradient id="paint0_linear_9712_9103" x1="21.9946" y1="44.6274" x2="74.0189" y2="44.008" gradientUnits="userSpaceOnUse">
<stop stop-color="#268B63"/>
<stop offset="0.955" stop-color="#62BF99"/>
</linearGradient>
<linearGradient id="paint1_linear_9712_9103" x1="21.9946" y1="44.6274" x2="74.0189" y2="44.008" gradientUnits="userSpaceOnUse">
<stop stop-color="#268B63"/>
<stop offset="0.955" stop-color="#62BF99"/>
</linearGradient>
<linearGradient id="paint2_linear_9712_9103" x1="21.9946" y1="44.6274" x2="74.0189" y2="44.008" gradientUnits="userSpaceOnUse">
<stop stop-color="#268B63"/>
<stop offset="0.955" stop-color="#62BF99"/>
</linearGradient>
<linearGradient id="paint3_linear_9712_9103" x1="21.9946" y1="44.6274" x2="74.0189" y2="44.008" gradientUnits="userSpaceOnUse">
<stop stop-color="#268B63"/>
<stop offset="0.955" stop-color="#62BF99"/>
</linearGradient>
</defs>
</svg>
