<svg width="48" height="48" viewBox="0 0 48 48" fill="none" xmlns="http://www.w3.org/2000/svg">
<path d="M43.7808 2.00753C45.0023 2.00753 45.9925 2.99773 45.9925 4.21921V31.9398C45.9925 39.6888 39.6888 45.9925 31.9398 45.9925H4.21921C2.99773 45.9925 2.00753 45.0023 2.00753 43.7808V16.0602C2.00753 8.31117 8.31117 2.00753 16.0602 2.00753H43.7808ZM48 2.21168C48 0.990204 47.0098 0 45.7883 0H16.0602C7.19364 0 0 7.19364 0 16.0602V45.7883C0 47.0098 0.990202 48 2.21168 48H31.9398C40.8064 48 48 40.8064 48 31.9398V2.21168Z" fill="#FEFEFE"/>
<path d="M27.5975 41.4964C37.2636 39.5123 43.4911 30.0678 41.5069 20.4017C39.5227 10.7356 30.0783 4.50813 20.4122 6.4923C10.746 8.47647 4.51858 17.9209 6.50275 27.587C8.48693 37.2532 17.9314 43.4806 27.5975 41.4964Z" fill="#FEFEFE"/>
<path d="M31.9981 18.1924C31.9737 18.6321 31.9254 19.0688 31.8678 19.5057C31.8246 19.8334 31.7819 20.1622 31.7421 20.4904C31.6988 20.8456 31.6233 21.1973 31.5812 21.5525C31.5301 21.985 31.456 22.4137 31.3877 22.8434C31.2956 23.4232 31.201 24.0023 31.1056 24.5815C31.0309 25.0347 30.9598 25.4884 30.8759 25.9399C30.7613 26.5551 30.653 27.1717 30.5477 27.7883C30.4531 28.3438 30.3511 28.8982 30.2478 29.4518C30.1403 30.0279 30.0785 30.6167 29.839 31.1637C29.7742 31.3118 29.6989 31.4535 29.6021 31.5836C29.3331 31.9443 28.9729 32.0513 28.5309 31.9779C28.0612 31.9 27.6594 31.6835 27.274 31.4284C25.6582 30.3592 24.0435 29.2878 22.4288 28.2167C22.2112 28.0722 21.9992 27.9182 21.844 27.7077C21.5761 27.3448 21.5727 27.1502 21.7976 26.7771C21.9245 26.5664 22.1048 26.3966 22.2817 26.2263C23.5176 25.0382 24.8128 23.9118 26.0546 22.7301C26.5145 22.2926 26.9806 21.8609 27.4017 21.3863C27.4685 21.3112 27.5435 21.2363 27.532 21.1224C27.5059 20.8693 27.3234 20.8206 27.042 20.9227C26.8528 20.9915 26.6849 21.1205 26.5125 21.23C24.3939 22.5765 22.3086 23.9721 20.2136 25.3533C19.88 25.5734 19.5448 25.7886 19.175 25.9501C18.5792 26.2101 17.9753 26.1903 17.3554 26.0477C16.3806 25.824 15.4285 25.5266 14.4815 25.2135C14.2863 25.1491 14.0982 25.0658 13.9365 24.9364C13.6611 24.7158 13.6389 24.4255 13.8837 24.1732C14.1274 23.9217 14.4407 23.7734 14.7586 23.6386C17.5488 22.453 20.3382 21.2652 23.1324 20.0884C25.2011 19.2173 27.2756 18.3592 29.3833 17.5813C29.8031 17.4264 30.2256 17.2776 30.667 17.1915C30.8217 17.1612 30.9781 17.1381 31.1381 17.1433C31.6783 17.1604 31.9661 17.4306 31.9976 17.9586C32.002 18.0362 31.9981 18.1143 31.9981 18.1922V18.1924Z" fill="#278C64"/>
</svg>
