<svg width="48" height="48" viewBox="0 0 48 48" fill="none" xmlns="http://www.w3.org/2000/svg">
<g clip-path="url(#clip0_9978_13396)">
<path d="M45.9925 2.00753V31.9398C45.9925 39.6888 39.6888 45.9925 31.9398 45.9925H2.00753V16.0602C2.00753 8.31117 8.31117 2.00753 16.0602 2.00753H45.9925ZM48 0H16.0602C7.19364 0 0 7.18695 0 16.0602V48H31.9398C40.8064 48 48 40.8064 48 31.9398V0Z" fill="#FEFEFE"/>
<path d="M27.588 41.4976C37.2541 39.5134 43.4815 30.069 41.4974 20.4029C39.5132 10.7368 30.0688 4.5093 20.4026 6.49347C10.7365 8.47764 4.50905 17.9221 6.49323 27.5882C8.4774 37.2543 17.9218 43.4818 27.588 41.4976Z" fill="#FEFEFE"/>
<path d="M33 19.0263V22.2214C31.092 22.2342 29.4087 21.6378 27.8247 20.5201C27.8247 20.703 27.8247 20.8228 27.8247 20.9427C27.8331 23.1901 27.849 25.4385 27.8481 27.6859C27.8471 30.6468 25.9036 33.0763 22.9676 33.8081C19.4737 34.6779 15.9049 32.5046 15.1381 29.0397C14.3957 25.6818 16.7241 22.3394 20.2451 21.7064C20.9501 21.5802 21.6532 21.55 22.3778 21.6799V24.8604C21.802 24.8851 21.2225 24.832 20.6814 24.9491C19.2134 25.2656 18.2323 26.6943 18.4195 28.1359C18.6152 29.6425 19.9353 30.7712 21.4772 30.752C23.0135 30.7328 24.3008 29.5821 24.4478 28.0929C24.4684 27.889 24.4749 27.6832 24.4749 27.4783C24.4787 23.1425 24.4796 18.8068 24.4815 14.4711C24.4815 14.3229 24.4815 14.1756 24.4815 14H27.7778C28.1299 17.0295 29.8656 18.697 32.9991 19.0263H33Z" fill="#278C64"/>
</g>
<defs>
<clipPath id="clip0_9978_13396">
<rect width="48" height="48" fill="white"/>
</clipPath>
</defs>
</svg>
