<svg width="48" height="48" viewBox="0 0 48 48" fill="none" xmlns="http://www.w3.org/2000/svg">
<path d="M43.7808 2.00753C45.0023 2.00753 45.9925 2.99773 45.9925 4.21921V31.9398C45.9925 39.6888 39.6888 45.9925 31.9398 45.9925H4.21921C2.99773 45.9925 2.00753 45.0023 2.00753 43.7808V16.0602C2.00753 8.31117 8.31117 2.00753 16.0602 2.00753H43.7808ZM48 2.21168C48 0.990204 47.0098 0 45.7883 0H16.0602C7.19364 0 0 7.19364 0 16.0602V45.7883C0 47.0098 0.990202 48 2.21168 48H31.9398C40.8064 48 48 40.8064 48 31.9398V2.21168Z" fill="#FEFEFE"/>
<path d="M27.5975 41.4964C37.2636 39.5123 43.4911 30.0678 41.5069 20.4017C39.5227 10.7356 30.0783 4.50813 20.4122 6.4923C10.746 8.47647 4.51858 17.9209 6.50275 27.587C8.48693 37.2532 17.9314 43.4806 27.5975 41.4964Z" fill="#FEFEFE"/>
<g clip-path="url(#clip0_9782_12723)">
<path d="M24.0669 14C24.1895 14 24.3123 14 24.4349 14C24.4633 14.0033 24.4916 14.009 24.5201 14.0098C24.8464 14.0183 25.1727 14.0222 25.4988 14.0351C25.8335 14.0483 26.1683 14.0648 26.5023 14.0896C26.7983 14.1116 27.0944 14.1375 27.3881 14.1789C27.7741 14.2332 28.1594 14.2959 28.542 14.37C29.3299 14.5225 30.0966 14.7483 30.8368 15.0586C31.3913 15.2911 31.9209 15.5689 32.4061 15.9253C33.0475 16.3964 33.5321 16.9985 33.9033 17.6946C34.3989 18.6239 34.6772 19.6221 34.843 20.654C34.8993 21.0044 34.9326 21.3585 34.9768 21.7108C34.9836 21.7653 34.9922 21.8197 34.9999 21.874V25.1074C34.9953 25.128 34.9883 25.1485 34.9867 25.1693C34.978 25.2851 34.9738 25.4013 34.9623 25.5169C34.9286 25.8544 34.899 26.1925 34.855 26.5287C34.8091 26.8805 34.7593 27.2324 34.6919 27.5807C34.5562 28.2822 34.3294 28.9546 34.0002 29.5914C33.6321 30.3038 33.1474 30.9251 32.5291 31.4416C31.8745 31.9884 31.1302 32.3712 30.3163 32.6225C29.9835 32.7253 29.6448 32.8098 29.3092 32.9039C28.9298 33.0103 28.5449 33.0928 28.1553 33.1496C27.6449 33.224 27.1334 33.2918 26.621 33.3508C26.3244 33.3849 26.0253 33.4025 25.7268 33.4158C25.3649 33.4318 25.0025 33.4398 24.6402 33.4431C24.0326 33.4486 23.4255 33.4286 22.82 33.376C22.776 33.3722 22.7463 33.384 22.7181 33.4185C22.6298 33.5271 22.5412 33.6359 22.4474 33.7397C21.932 34.31 21.4163 34.88 20.898 35.4476C20.7028 35.6615 20.4993 35.8677 20.2285 35.991C20.2261 35.9921 20.2255 35.997 20.224 36.0001H19.5961C19.5924 35.9963 19.5891 35.9911 19.5846 35.9891C19.393 35.9078 19.2778 35.7568 19.2029 35.5714C19.1214 35.3699 19.0911 35.1586 19.0912 34.9423C19.0912 34.2209 19.0906 33.4995 19.0924 32.7781C19.0925 32.7263 19.0778 32.7038 19.0265 32.6893C18.5614 32.5571 18.1132 32.3822 17.6838 32.1602C16.7122 31.6576 15.9305 30.9495 15.3446 30.0297C14.7773 29.1392 14.4495 28.1594 14.2525 27.1315C14.1708 26.7051 14.1105 26.2757 14.0776 25.8429C14.0572 25.574 14.0403 25.3046 14.0252 25.0353C14.0169 24.8871 14.0158 24.7385 14.0105 24.5902C14.0097 24.5692 14.0034 24.5484 13.9998 24.5275C13.9998 24.1909 13.9998 23.8542 13.9998 23.5177C14.0034 23.4914 14.0096 23.4653 14.0104 23.4388C14.019 23.1204 14.0237 22.8019 14.036 22.4837C14.046 22.2284 14.0577 21.9727 14.082 21.7185C14.1133 21.3917 14.1531 21.0655 14.198 20.7403C14.266 20.2466 14.3717 19.7602 14.5119 19.2814C14.7436 18.4895 15.0753 17.744 15.5581 17.0691C15.7662 16.7781 15.991 16.4995 16.256 16.2579C16.8061 15.7563 17.4427 15.388 18.1234 15.0913C18.7446 14.8206 19.3882 14.6149 20.0494 14.4671C20.4488 14.3777 20.852 14.3037 21.2553 14.2322C21.4957 14.1897 21.7391 14.1623 21.9819 14.1343C22.1874 14.1105 22.3936 14.0927 22.5999 14.0772C22.8638 14.0574 23.1279 14.0394 23.3923 14.0263C23.6011 14.016 23.8104 14.0145 24.0195 14.0085C24.0353 14.0081 24.0511 14.003 24.0668 14.0002L24.0669 14ZM19.7463 33.1996H19.7329C19.7329 33.2909 19.7334 33.3822 19.7329 33.4735C19.7295 33.9927 19.7244 34.5118 19.7239 35.0309C19.7239 35.1028 19.7376 35.177 19.7587 35.2461C19.7851 35.3324 19.8445 35.3611 19.9338 35.3489C20.0405 35.3343 20.1255 35.2791 20.1998 35.206C20.2575 35.1494 20.3134 35.0909 20.3685 35.0318C21.0756 34.2733 21.7432 33.4808 22.4151 32.692C22.6597 32.405 22.9008 32.1151 23.1446 31.8274C23.1577 31.8119 23.1822 31.7959 23.2008 31.7965C23.4764 31.8043 23.752 31.82 24.0276 31.824C24.5649 31.8317 25.1022 31.8229 25.6384 31.7825C25.8843 31.764 26.1307 31.7501 26.376 31.7248C26.6604 31.6956 26.9443 31.661 27.2272 31.62C27.5222 31.5771 27.8173 31.5309 28.1097 31.473C28.3968 31.4161 28.6802 31.3409 28.9658 31.2769C29.2957 31.203 29.6252 31.129 29.9455 31.0187C30.63 30.7832 31.2397 30.4265 31.7544 29.9171C32.3493 29.3283 32.7403 28.6191 33.001 27.8329C33.2251 27.1568 33.3233 26.4578 33.3894 25.7528C33.4113 25.5181 33.4309 25.2829 33.4449 25.0476C33.4658 24.6959 33.4915 24.3441 33.4953 23.9921C33.5001 23.5502 33.4911 23.1081 33.4756 22.6665C33.465 22.3632 33.4428 22.0595 33.4081 21.758C33.3698 21.425 33.3187 21.0931 33.2601 20.7629C33.1491 20.1369 32.9768 19.5274 32.7271 18.941C32.5318 18.4824 32.2865 18.053 31.9708 17.6638C31.6111 17.2204 31.1529 16.9084 30.6439 16.6603C30.0337 16.363 29.3939 16.1479 28.7358 15.9847C28.128 15.834 27.5124 15.7252 26.8891 15.6613C26.5867 15.6302 26.2838 15.6009 25.9805 15.5793C25.7361 15.5619 25.4909 15.5529 25.2458 15.5479C24.8096 15.5394 24.3731 15.5262 23.937 15.5344C23.5139 15.5424 23.091 15.568 22.669 15.5985C22.3732 15.6199 22.0782 15.6562 21.7844 15.6968C21.3569 15.7559 20.9332 15.8371 20.5143 15.9413C19.769 16.1266 19.0507 16.3799 18.3785 16.7553C17.7657 17.0974 17.2564 17.5474 16.8653 18.1304C16.4736 18.7141 16.204 19.3497 16.0211 20.0239C15.857 20.6287 15.757 21.2449 15.7066 21.8687C15.6808 22.1875 15.657 22.5067 15.6443 22.8262C15.6304 23.1749 15.6238 23.5241 15.6257 23.8729C15.6283 24.3273 15.6379 24.7818 15.6536 25.2359C15.6622 25.4857 15.6798 25.7359 15.7108 25.9839C15.7505 26.3006 15.7986 26.6168 15.8599 26.9299C15.9852 27.5714 16.19 28.1873 16.4999 28.7659C16.8542 29.4273 17.3289 29.9861 17.9414 30.4275C18.4694 30.8081 19.0537 31.0713 19.6782 31.2504C19.7315 31.2657 19.7477 31.2863 19.7476 31.3412C19.7454 31.9606 19.7463 32.58 19.7463 33.1994V33.1996Z" fill="#278C64"/>
<path d="M27.8521 29.652C27.6137 29.6382 27.3914 29.5727 27.1729 29.4935C26.6523 29.3049 26.1596 29.0558 25.6647 28.8108C24.7291 28.3476 23.8513 27.795 23.0274 27.1562C22.5836 26.8121 22.1886 26.4181 21.7985 26.0176C21.271 25.4761 20.8179 24.877 20.4058 24.2469C19.8296 23.3658 19.3373 22.4399 18.9244 21.4727C18.8274 21.2454 18.7514 21.0107 18.7027 20.7682C18.6396 20.454 18.7119 20.166 18.8774 19.8963C19.0092 19.6815 19.1836 19.503 19.3645 19.3303C19.6004 19.105 19.853 18.8989 20.1354 18.7344C20.3966 18.5823 20.6737 18.5346 20.9592 18.677C21.0761 18.7354 21.1619 18.8291 21.2454 18.9269C21.7583 19.5276 22.2093 20.1723 22.6296 20.8391C22.8396 21.1722 22.8053 21.6686 22.5411 21.9496C22.4607 22.0351 22.3599 22.102 22.267 22.1756C22.1796 22.2449 22.0924 22.3145 22.0019 22.3795C21.8521 22.4871 21.7827 22.6379 21.7457 22.8118C21.7119 22.9707 21.7551 23.1151 21.8088 23.2607C22.1972 24.3144 22.8113 25.2056 23.7265 25.8783C24.2112 26.2346 24.7494 26.4824 25.3315 26.6377C25.5781 26.6551 25.804 26.6076 25.97 26.4106C26.1089 26.2461 26.2365 26.0723 26.3704 25.9035C26.5205 25.7143 26.7201 25.6177 26.9593 25.5945C27.1831 25.5729 27.3867 25.6315 27.5797 25.7392C28.0862 26.0214 28.5512 26.3626 29.0037 26.7216C29.1756 26.858 29.3474 26.9944 29.5181 27.1321C29.7231 27.2975 29.8284 27.5091 29.8107 27.7745C29.8004 27.9268 29.7512 28.0682 29.6772 28.2008C29.4676 28.5765 29.1857 28.8921 28.863 29.1755C28.6437 29.3679 28.4047 29.5229 28.12 29.5993C28.0324 29.6228 27.9415 29.6348 27.8521 29.6521V29.652Z" fill="#278C64"/>
<path d="M30.185 23.8204C30.1794 23.8919 30.1821 23.9557 30.1679 24.0158C30.1359 24.1513 30.0112 24.2283 29.8628 24.2126C29.739 24.1995 29.6388 24.0846 29.6333 23.9533C29.6237 23.7246 29.621 23.4952 29.6005 23.2675C29.507 22.2354 29.2023 21.2772 28.5452 20.4556C27.781 19.5004 26.7969 18.8878 25.5901 18.6359C25.2369 18.5622 24.8799 18.5217 24.5188 18.5184C24.4629 18.5178 24.407 18.5149 24.3512 18.5116C24.1933 18.5022 24.0883 18.3863 24.0921 18.2268C24.0954 18.0863 24.2163 17.9651 24.3649 17.9699C24.6096 17.9777 24.8545 17.9899 25.0983 18.0106C25.483 18.0432 25.8592 18.1227 26.2279 18.2359C27.2183 18.5402 28.0544 19.0839 28.7475 19.8453C29.3813 20.5416 29.7821 21.3579 29.996 22.2682C30.0717 22.5903 30.1245 22.916 30.1485 23.2459C30.1627 23.4402 30.1734 23.6348 30.1851 23.8205L30.185 23.8204Z" fill="#278C64"/>
<path d="M28.7189 23.184C28.7189 23.2502 28.7206 23.3165 28.7186 23.3827C28.7143 23.5274 28.5953 23.6375 28.4457 23.6371C28.2981 23.6368 28.1773 23.5235 28.1733 23.3805C28.1694 23.2429 28.1707 23.105 28.1621 22.9677C28.124 22.3582 27.9382 21.7983 27.5796 21.2991C27.1288 20.6713 26.5146 20.2801 25.7708 20.0798C25.496 20.0057 25.2163 19.9587 24.9321 19.9384C24.7524 19.9256 24.6401 19.8117 24.6444 19.6482C24.6483 19.5006 24.7898 19.3751 24.9386 19.3887C25.2613 19.4184 25.5815 19.4628 25.8946 19.5484C27.1147 19.882 27.9849 20.6124 28.4607 21.7858C28.5902 22.1054 28.6659 22.4394 28.6974 22.7827C28.7096 22.9161 28.717 23.0499 28.7266 23.1835C28.724 23.1836 28.7215 23.1838 28.7189 23.1839V23.184Z" fill="#278C64"/>
<path d="M27.2579 22.852C27.2733 22.9735 27.2352 23.0725 27.1274 23.1363C26.9411 23.2467 26.7203 23.1131 26.7112 22.89C26.7015 22.6532 26.6586 22.422 26.5671 22.2019C26.4048 21.8116 26.1027 21.5871 25.6959 21.4968C25.5493 21.4642 25.3974 21.4552 25.2486 21.4313C25.1016 21.4077 25.0021 21.2691 25.0244 21.1263C25.0472 20.9797 25.1837 20.8832 25.3321 20.8944C25.5572 20.9115 25.779 20.9424 25.9937 21.0125C26.6216 21.2176 27.0051 21.6496 27.1681 22.2773C27.2167 22.4646 27.2393 22.6586 27.2737 22.8495C27.2684 22.8504 27.2631 22.8512 27.2579 22.852Z" fill="#278C64"/>
</g>
<defs>
<clipPath id="clip0_9782_12723">
<rect width="21" height="22" fill="white" transform="translate(14 14)"/>
</clipPath>
</defs>
</svg>
