<svg width="48" height="48" viewBox="0 0 48 48" fill="none" xmlns="http://www.w3.org/2000/svg">
<g clip-path="url(#clip0_9782_12736)">
<path d="M45.9925 2.00753V31.9398C45.9925 39.6888 39.6889 45.9925 31.9398 45.9925H2.00756V16.0602C2.00756 8.31117 8.3112 2.00753 16.0603 2.00753H45.9925ZM48 0H16.0603C7.19367 0 3.05176e-05 7.18695 3.05176e-05 16.0602V48H31.9398C40.8064 48 48 40.8064 48 31.9398V0Z" fill="#FEFEFE"/>
<path d="M27.588 41.4974C37.2542 39.5133 43.4816 30.0688 41.4974 20.4027C39.5133 10.7366 30.0688 4.50911 20.4027 6.49328C10.7366 8.47745 4.50912 17.9219 6.49329 27.588C8.47747 37.2541 17.9219 43.4816 27.588 41.4974Z" fill="#FEFEFE"/>
<path fill-rule="evenodd" clip-rule="evenodd" d="M34.1747 23.4811C34.0409 18.1143 29.6176 13.8115 24.1839 13.8115C18.7502 13.8115 14.4273 18.0206 14.1931 23.3004C14.1931 23.4477 14.1864 23.5882 14.1864 23.7354C14.1864 25.6091 14.7084 27.3623 15.6184 28.8613L13.8184 34.1812L19.3524 32.4213C20.7845 33.2042 22.4307 33.6593 24.1839 33.6593C29.7046 33.6593 34.1814 29.216 34.1814 23.7354C34.1814 23.6484 34.1814 23.5681 34.1814 23.4811H34.1747ZM24.1839 32.0733C22.4775 32.0733 20.8915 31.5648 19.5599 30.6948L16.3278 31.7254L17.3784 28.6271C16.3746 27.2486 15.779 25.5623 15.779 23.7354C15.779 23.461 15.7924 23.1934 15.8192 22.9257C16.2341 18.7032 19.8276 15.3975 24.1839 15.3975C28.5402 15.3975 32.2274 18.7902 32.562 23.0863C32.5821 23.3004 32.5887 23.5146 32.5887 23.7354C32.5887 28.3393 28.8146 32.0733 24.1839 32.0733Z" fill="#278C64"/>
<path fill-rule="evenodd" clip-rule="evenodd" d="M28.768 25.7431C28.5204 25.6226 27.3159 25.0337 27.0951 24.9534C26.8676 24.8665 26.707 24.833 26.5397 25.0739C26.3791 25.3148 25.904 25.8635 25.7634 26.0241C25.6162 26.1847 25.4757 26.2048 25.2281 26.0844C24.9872 25.9639 24.1909 25.7096 23.2607 24.8798C22.538 24.2374 22.0361 23.4411 21.8956 23.2002C21.7551 22.9593 21.8822 22.8255 22.0027 22.705C22.1164 22.5913 22.2436 22.4173 22.3707 22.2767C22.4042 22.2366 22.4309 22.1964 22.4577 22.1563C22.5112 22.0693 22.5581 21.9823 22.6116 21.8685C22.6986 21.7079 22.6518 21.5674 22.5915 21.4403C22.5313 21.3198 22.0361 20.122 21.8354 19.6335C21.6346 19.145 21.4272 19.232 21.28 19.232C21.1327 19.232 20.9788 19.2119 20.8115 19.2119C20.6442 19.2119 20.3833 19.2721 20.1557 19.513C19.9282 19.7539 19.2992 20.3428 19.2992 21.5473C19.2992 21.8284 19.3527 22.1094 19.4263 22.3771C19.6739 23.2337 20.2093 23.943 20.303 24.0634C20.4234 24.224 21.996 26.7602 24.4853 27.7372C26.9813 28.7075 26.9813 28.3796 27.4297 28.3395C27.878 28.2993 28.8818 27.7573 29.0825 27.1818C29.29 26.613 29.29 26.1312 29.2298 26.0241C29.1695 25.9237 29.0022 25.8635 28.7613 25.7431H28.768Z" fill="#278C64"/>
</g>
<defs>
<clipPath id="clip0_9782_12736">
<rect width="48" height="48" fill="white"/>
</clipPath>
</defs>
</svg>
