<svg width="96" height="96" viewBox="0 0 96 96" fill="none" xmlns="http://www.w3.org/2000/svg">
<rect width="96" height="96" rx="48" fill="#F0F9F8"/>
<g clip-path="url(#clip0_9712_9172)">
<path d="M39.3333 74.0001V67.0018C38.185 67.0018 37.0583 67.0018 35.9317 67.0018C34.61 67.0018 33.3533 66.6551 32.205 66.0051C29.54 64.4451 28.175 62.0834 28.11 59.0068C28.0667 56.9268 28.11 54.8468 28.11 52.7668C28.11 52.4201 28.0017 52.2468 27.6767 52.0951C26.16 51.4234 24.665 50.7301 23.1267 50.0368C23.3433 49.7118 23.5383 49.4301 23.7333 49.1484C25.0983 47.1551 26.485 45.1834 27.8283 43.1901C27.98 42.9518 28.0883 42.6268 28.0883 42.3451C28.0667 40.0051 28.11 37.6651 28.825 35.4334C31.1 28.3268 35.8017 23.8634 43.1467 22.3468C43.97 22.1734 44.815 22.1518 45.6817 22.1084C41.1317 24.9251 38.0117 28.8251 36.5383 33.9818C35.0867 39.1384 35.6717 44.1001 38.1633 48.8451C42.02 56.1468 51.445 61.6284 61.9967 58.4001C61.4117 59.2234 60.87 60.0901 60.2417 60.8918C58.4217 63.1451 56.1467 64.8134 53.46 65.8534C53.1133 65.9834 53.005 66.1568 53.005 66.5034C53.005 68.8001 53.005 71.0968 53.005 73.3934C53.005 73.5884 53.005 73.8051 52.9617 74.0001H39.2683H39.3333Z" fill="url(#paint0_linear_9712_9172)"/>
<path d="M55.6917 56.6884C46.115 56.6884 38.38 48.9534 38.4017 39.3984C38.4017 29.8218 46.1583 22.0868 55.7133 22.1084C65.2683 22.1084 73.0033 29.8868 72.9817 39.4418C72.96 48.9751 65.225 56.7101 55.6917 56.6884ZM67.37 39.4201C67.3917 33.0068 62.1917 27.7634 55.735 27.7201C49.3433 27.6768 44.035 32.9418 44.0133 39.3551C43.9917 45.7684 49.2133 51.0551 55.6267 51.0984C62.0617 51.1418 67.3483 45.8984 67.37 39.4418V39.4201Z" fill="url(#paint1_linear_9712_9172)"/>
<path d="M55.67 48.4768C50.6433 48.4768 46.5917 44.4034 46.6133 39.3768C46.6133 34.3501 50.7083 30.2984 55.735 30.3201C60.74 30.3201 64.7917 34.4368 64.77 39.4634C64.77 44.4468 60.675 48.4984 55.67 48.4768ZM55.6917 44.9018C57.49 44.8368 58.9417 44.1001 60.09 42.7351C60.5883 42.1501 60.5233 41.3484 59.9817 40.8718C59.4183 40.3951 58.6383 40.4168 58.14 41.0451C56.7533 42.7351 54.5 42.6484 53.2217 41.0234C52.7667 40.4384 51.965 40.3951 51.4233 40.8718C50.8817 41.3268 50.7733 42.1068 51.25 42.6918C52.3983 44.1001 53.8933 44.8584 55.7133 44.9018H55.6917ZM53.5033 35.9751C53.5033 35.6934 53.5033 35.4118 53.5033 35.1084C53.4383 34.4584 52.9183 33.9601 52.2683 33.9384C51.5967 33.9168 51.0333 34.3501 50.9683 35.0218C50.9033 35.6284 50.9033 36.2784 50.9683 36.8851C51.0333 37.5568 51.6183 37.9901 52.2683 37.9684C52.9183 37.9468 53.4383 37.4484 53.5033 36.7984C53.525 36.5384 53.5033 36.2568 53.5033 35.9968V35.9751ZM60.415 35.9751C60.415 35.7151 60.415 35.4334 60.415 35.1734C60.3717 34.4584 59.83 33.9601 59.115 33.9601C58.4433 33.9601 57.88 34.4584 57.8583 35.1518C57.8367 35.6934 57.8367 36.2351 57.8583 36.7768C57.9017 37.4918 58.4433 38.0118 59.1367 37.9901C59.83 37.9901 60.3717 37.4701 60.415 36.7551C60.415 36.4951 60.415 36.2568 60.415 35.9968V35.9751Z" fill="url(#paint2_linear_9712_9172)"/>
</g>
<defs>
<linearGradient id="paint0_linear_9712_9172" x1="23.1267" y1="44.2815" x2="72.9965" y2="43.7728" gradientUnits="userSpaceOnUse">
<stop stop-color="#268B63"/>
<stop offset="0.955" stop-color="#62BF99"/>
</linearGradient>
<linearGradient id="paint1_linear_9712_9172" x1="23.1267" y1="44.2815" x2="72.9965" y2="43.7728" gradientUnits="userSpaceOnUse">
<stop stop-color="#268B63"/>
<stop offset="0.955" stop-color="#62BF99"/>
</linearGradient>
<linearGradient id="paint2_linear_9712_9172" x1="23.1267" y1="44.2815" x2="72.9965" y2="43.7728" gradientUnits="userSpaceOnUse">
<stop stop-color="#268B63"/>
<stop offset="0.955" stop-color="#62BF99"/>
</linearGradient>
<clipPath id="clip0_9712_9172">
<rect width="52" height="52" fill="white" transform="translate(22 22)"/>
</clipPath>
</defs>
</svg>
